<svg width="16" height="16" viewBox="0 0 16 16" fill="none" xmlns="http://www.w3.org/2000/svg">
<path d="M5.3335 11.1663H3.62016C1.82683 11.1663 0.833496 10.1797 0.833496 8.37967V3.61967C0.833496 1.82634 1.82016 0.833008 3.62016 0.833008H6.66683C8.46016 0.833008 9.4535 1.81967 9.4535 3.61967C9.4535 3.89301 9.22683 4.11967 8.9535 4.11967C8.68016 4.11967 8.4535 3.89301 8.4535 3.61967C8.4535 2.36634 7.92016 1.83301 6.66683 1.83301H3.62016C2.36683 1.83301 1.8335 2.36634 1.8335 3.61967V8.37967C1.8335 9.63301 2.36683 10.1663 3.62016 10.1663H5.3335C5.60683 10.1663 5.8335 10.393 5.8335 10.6663C5.8335 10.9397 5.60683 11.1663 5.3335 11.1663Z" fill="#3F4252"/>
<path d="M12.3802 15.1663H9.33354C7.54021 15.1663 6.54688 14.1797 6.54688 12.3797V7.61967C6.54688 5.82634 7.53354 4.83301 9.33354 4.83301H12.3802C14.1735 4.83301 15.1669 5.81967 15.1669 7.61967V12.3797C15.1669 14.1797 14.1802 15.1663 12.3802 15.1663ZM9.33354 5.83301C8.08021 5.83301 7.54688 6.36634 7.54688 7.61967V12.3797C7.54688 13.633 8.08021 14.1663 9.33354 14.1663H12.3802C13.6335 14.1663 14.1669 13.633 14.1669 12.3797V7.61967C14.1669 6.36634 13.6335 5.83301 12.3802 5.83301H9.33354Z" fill="#3F4252"/>
<path d="M12.0866 10.5H9.91992C9.64659 10.5 9.41992 10.2733 9.41992 10C9.41992 9.72667 9.64659 9.5 9.91992 9.5H12.0866C12.3599 9.5 12.5866 9.72667 12.5866 10C12.5866 10.2733 12.3599 10.5 12.0866 10.5Z" fill="#3F4252"/>
<path d="M11 11.5866C10.7267 11.5866 10.5 11.3599 10.5 11.0866V8.91992C10.5 8.64659 10.7267 8.41992 11 8.41992C11.2733 8.41992 11.5 8.64659 11.5 8.91992V11.0866C11.5 11.3599 11.2733 11.5866 11 11.5866Z" fill="#3F4252"/>
</svg>
