<svg width="120" height="120" viewBox="0 0 120 120" fill="none" xmlns="http://www.w3.org/2000/svg">
<path d="M100.85 87.8501C98.2 90.3001 95.15 92.1501 91.85 93.4001C88.55 94.6501 85 92.2501 85 88.7001V82.1001C85 72.3501 77.1 64.4501 67.35 64.4501H52.65C42.9 64.4501 35 72.3501 35 82.1001V90.0001C35 92.7501 32.75 95.0001 30 95.0001H27.75C15.5 93.1501 10 83.2001 10 74.3001C10 65.9001 14.9 56.6001 25.55 54.0001C22.6 42.3501 25.1 31.4001 32.7 23.4501C41.35 14.4001 55.15 10.8001 67.05 14.5001C78 17.8501 85.7 26.8501 88.45 39.3501C98 41.5001 105.65 48.7001 108.7 58.7001C112 69.5501 109 80.7001 100.85 87.8501Z" fill="#E7EFFA"/>
<path d="M100.85 87.8501C98.2 90.3001 95.15 92.1501 91.85 93.4001C88.55 94.6501 85 92.2501 85 88.7001V82.1001C85 72.3501 77.1 64.4501 67.35 64.4501H52.65C42.9 64.4501 35 72.3501 35 82.1001V90.0001C35 92.7501 32.75 95.0001 30 95.0001H27.75C15.5 93.1501 10 83.2001 10 74.3001C10 65.9001 14.9 56.6001 25.55 54.0001C22.6 42.3501 25.1 31.4001 32.7 23.4501C41.35 14.4001 55.15 10.8001 67.05 14.5001C78 17.8501 85.7 26.8501 88.45 39.3501C98 41.5001 105.65 48.7001 108.7 58.7001C112 69.5501 109 80.7001 100.85 87.8501Z" fill="#E7EFFA" fillOpacity="0.2"/>
<path d="M67.35 71.95H52.65C46.3 71.95 42.5 75.7499 42.5 82.0999V96.7999C42.5 103.15 46.3 106.95 52.65 106.95H67.35C73.7 106.95 77.5 103.15 77.5 96.7999V82.0999C77.5 75.7499 73.7 71.95 67.35 71.95ZM68.55 92.2999H51.5C49.7 92.2999 48.25 90.8499 48.25 89.0499C48.25 87.2999 49.7 85.8499 51.5 85.8499H68.6C70.35 85.8499 71.8 87.2999 71.8 89.0499C71.75 90.8999 70.3 92.2999 68.55 92.2999Z" fill="#E7EFFA"/>
<path d="M67.35 71.95H52.65C46.3 71.95 42.5 75.7499 42.5 82.0999V96.7999C42.5 103.15 46.3 106.95 52.65 106.95H67.35C73.7 106.95 77.5 103.15 77.5 96.7999V82.0999C77.5 75.7499 73.7 71.95 67.35 71.95ZM68.55 92.2999H51.5C49.7 92.2999 48.25 90.8499 48.25 89.0499C48.25 87.2999 49.7 85.8499 51.5 85.8499H68.6C70.35 85.8499 71.8 87.2999 71.8 89.0499C71.75 90.8999 70.3 92.2999 68.55 92.2999Z" fill="#E7EFFA" fillOpacity="0.2"/>
</svg>
