<svg width="120" height="120" viewBox="0 0 120 120" fill="none" xmlns="http://www.w3.org/2000/svg">
<g opacity="0.1">
<path d="M100 60V90C100 101.05 91.05 110 80 110H40C28.95 110 20 101.05 20 90V60C20 57.25 22.25 55 25 55H34.85C37.6 55 39.85 57.25 39.85 60V75.7C39.85 79.4 41.9 82.8 45.15 84.55C46.6 85.35 48.2 85.75 49.85 85.75C51.75 85.75 53.65 85.2 55.3 84.1L60.05 81L64.45 83.95C67.5 86 71.4 86.25 74.65 84.5C77.95 82.75 80 79.4 80 75.65V60C80 57.25 82.25 55 85 55H95C97.75 55 100 57.25 100 60Z" fill="#1677FF"/>
<path d="M100 60V90C100 101.05 91.05 110 80 110H40C28.95 110 20 101.05 20 90V60C20 57.25 22.25 55 25 55H34.85C37.6 55 39.85 57.25 39.85 60V75.7C39.85 79.4 41.9 82.8 45.15 84.55C46.6 85.35 48.2 85.75 49.85 85.75C51.75 85.75 53.65 85.2 55.3 84.1L60.05 81L64.45 83.95C67.5 86 71.4 86.25 74.65 84.5C77.95 82.75 80 79.4 80 75.65V60C80 57.25 82.25 55 85 55H95C97.75 55 100 57.25 100 60Z" fill="black" fillOpacity="0.2"/>
<path d="M107.5 35V40C107.5 45.5 104.85 50 97.5 50H22.5C14.85 50 12.5 45.5 12.5 40V35C12.5 29.5 14.85 25 22.5 25H97.5C104.85 25 107.5 29.5 107.5 35Z" fill="#1677FF"/>
<path d="M107.5 35V40C107.5 45.5 104.85 50 97.5 50H22.5C14.85 50 12.5 45.5 12.5 40V35C12.5 29.5 14.85 25 22.5 25H97.5C104.85 25 107.5 29.5 107.5 35Z" fill="black" fillOpacity="0.2"/>
<path d="M58.1999 25.0002H30.5999C28.8999 23.1502 28.9499 20.3002 30.7499 18.5002L37.8499 11.4002C39.6999 9.5502 42.7499 9.5502 44.5999 11.4002L58.1999 25.0002Z" fill="#1677FF"/>
<path d="M58.1999 25.0002H30.5999C28.8999 23.1502 28.9499 20.3002 30.7499 18.5002L37.8499 11.4002C39.6999 9.5502 42.7499 9.5502 44.5999 11.4002L58.1999 25.0002Z" fill="black" fillOpacity="0.2"/>
<path d="M89.35 25.0002H61.75L75.35 11.4002C77.2 9.5502 80.25 9.5502 82.1 11.4002L89.2 18.5002C91 20.3002 91.05 23.1502 89.35 25.0002Z" fill="#1677FF"/>
<path d="M89.35 25.0002H61.75L75.35 11.4002C77.2 9.5502 80.25 9.5502 82.1 11.4002L89.2 18.5002C91 20.3002 91.05 23.1502 89.35 25.0002Z" fill="black" fillOpacity="0.2"/>
<path d="M69.8502 55C72.6002 55 74.8502 57.25 74.8502 60V75.65C74.8502 79.65 70.4002 82.05 67.1002 79.8L62.6002 76.8C60.9502 75.7 58.8002 75.7 57.1002 76.8L52.4002 79.9C49.1002 82.1 44.7002 79.7 44.7002 75.75V60C44.7002 57.25 46.9502 55 49.7002 55H69.8502Z" fill="#1677FF"/>
<path d="M69.8502 55C72.6002 55 74.8502 57.25 74.8502 60V75.65C74.8502 79.65 70.4002 82.05 67.1002 79.8L62.6002 76.8C60.9502 75.7 58.8002 75.7 57.1002 76.8L52.4002 79.9C49.1002 82.1 44.7002 79.7 44.7002 75.75V60C44.7002 57.25 46.9502 55 49.7002 55H69.8502Z" fill="black" fillOpacity="0.2"/>
</g>
</svg>
