<svg width="16" height="16" viewBox="0 0 16 16" fill="none" xmlns="http://www.w3.org/2000/svg">
<path d="M7.99962 14.5696C4.37573 14.5696 1.43018 11.624 1.43018 8.00011C1.43018 4.37622 4.37573 1.43066 7.99962 1.43066C8.25018 1.43066 8.45795 1.63844 8.45795 1.889C8.45795 2.13955 8.25018 2.34733 7.99962 2.34733C4.88295 2.34733 2.34684 4.88344 2.34684 8.00011C2.34684 11.1168 4.88295 13.6529 7.99962 13.6529C11.1163 13.6529 13.6524 11.1168 13.6524 8.00011C13.6524 7.74955 13.8602 7.54177 14.1107 7.54177C14.3613 7.54177 14.5691 7.74955 14.5691 8.00011C14.5691 11.624 11.6235 14.5696 7.99962 14.5696Z" fill="#CC4429"/>
<path d="M9.09987 7.35887C8.98376 7.35887 8.86765 7.31609 8.77598 7.22442C8.59876 7.0472 8.59876 6.75387 8.77598 6.57665L13.7871 1.56553C13.9643 1.38831 14.2576 1.38831 14.4349 1.56553C14.6121 1.74276 14.6121 2.03609 14.4349 2.21331L9.42376 7.22442C9.3382 7.30998 9.22209 7.35887 9.09987 7.35887Z" fill="#CC4429"/>
<path d="M11.5628 7.84783H8.61117C8.36061 7.84783 8.15283 7.64005 8.15283 7.38949V4.43783C8.15283 4.18727 8.36061 3.97949 8.61117 3.97949C8.86172 3.97949 9.0695 4.18727 9.0695 4.43783V6.93116H11.5628C11.8134 6.93116 12.0212 7.13894 12.0212 7.38949C12.0212 7.64005 11.8134 7.84783 11.5628 7.84783Z" fill="#CC4429"/>
</svg>
