<?xml version="1.0" encoding="UTF-8"?>
<svg xmlns="http://www.w3.org/2000/svg" viewBox="0 0 617.63 69.23">
  <g>
    <g>
      <path class="cls-1"
        d="M138.38,43.25c0-5.02-.31-5.7-2.79-6.39-.5-.12-1.55-.19-2.11-.19-.25,0-.5-.12-.5-.37,0-.37.31-.5.99-.5,2.79,0,6.7.19,7.01.19s4.22-.19,6.08-.19c.68,0,.99.12.99.5,0,.25-.25.37-.5.37-.43,0-.81.06-1.55.19-1.67.31-2.17,1.36-2.29,3.53-.12,1.98-.12,3.84-.12,6.45v6.94c0,2.79-.06,2.91-.81,3.35-3.97,2.11-9.55,2.79-13.14,2.79-4.71,0-13.52-.62-20.4-6.63-3.78-3.29-7.38-9.92-7.38-17.67,0-9.92,4.84-16.93,10.35-20.4,5.58-3.47,11.72-3.91,16.49-3.91,3.91,0,8.31.81,9.49,1.05,1.3.31,3.47.56,5.02.62.62.06.74.31.74.56,0,.87-.43,2.6-.43,8.8,0,.99-.12,1.3-.56,1.3-.31,0-.37-.37-.43-.93-.06-.87-.37-2.6-1.3-4.09-1.55-2.36-6.57-5.02-14.57-5.02-3.91,0-8.56.37-13.27,4.09-3.6,2.85-6.14,8.49-6.14,15.75,0,8.74,4.4,15.06,6.57,17.17,4.9,4.77,10.54,6.63,16.24,6.63,2.23,0,5.46-.37,7.07-1.3.81-.43,1.24-1.12,1.24-2.17v-10.54Z" />
      <path class="cls-1"
        d="M169.57,43.75c0,5.08,0,9.24.25,11.41.19,1.55.37,2.54,1.98,2.79.81.12,1.98.25,2.48.25.31,0,.43.25.43.43,0,.25-.25.43-.87.43-3.04,0-6.57-.19-6.82-.19-.31,0-3.72.19-5.39.19-.56,0-.87-.12-.87-.43,0-.19.12-.43.43-.43.5,0,1.18-.12,1.67-.25,1.05-.25,1.24-1.24,1.43-2.79.25-2.17.31-6.32.31-11.41v-9.3c0-8.18,0-9.67-.12-11.35-.12-1.8-.56-2.6-1.74-2.85-.62-.12-1.3-.19-1.67-.19-.25,0-.43-.25-.43-.43,0-.31.25-.43.87-.43,1.8,0,5.21.12,5.52.12.25,0,3.78-.12,5.46-.12.62,0,.87.12.87.43,0,.19-.25.43-.43.43-.37,0-.74,0-1.36.12-1.49.31-1.8,1.05-1.92,2.91-.06,1.67-.06,3.16-.06,11.35v9.3Z" />
      <path class="cls-1"
        d="M192.94,51.87c.12,4.34.62,5.64,2.11,6.01.99.25,2.23.31,2.73.31.25,0,.43.19.43.43,0,.31-.37.43-.99.43-3.1,0-5.27-.19-5.77-.19s-2.79.19-5.27.19c-.56,0-.87-.06-.87-.43,0-.25.19-.43.43-.43.43,0,1.43-.06,2.23-.31,1.36-.37,1.55-1.8,1.55-6.57v-30.19c0-2.11.31-2.67.74-2.67.62,0,1.55,1.05,2.11,1.61.87.87,8.8,9.3,17.24,17.98,5.39,5.58,11.22,11.84,12.89,13.58l-.56-26.41c-.06-3.41-.37-4.59-2.05-4.9-.99-.19-2.23-.25-2.67-.25-.37,0-.43-.31-.43-.5,0-.31.43-.37,1.05-.37,2.48,0,5.08.12,5.7.12s2.42-.12,4.65-.12c.56,0,.99.06.99.37,0,.19-.25.5-.62.5-.25,0-.68,0-1.3.12-1.8.37-1.92,1.43-1.92,4.59l-.12,30.87c0,3.47-.06,3.78-.43,3.78-.56,0-1.12-.43-4.15-3.22-.56-.5-8.43-8.25-14.2-14.26-6.32-6.63-12.46-13.08-14.14-14.94l.62,24.86Z" />
      <path class="cls-1"
        d="M263.12,56.58c5.77,0,7.25-.93,8.49-2.42.56-.68.93-2.11,1.12-2.85.12-.5.31-.81.62-.81s.43.19.43,1.18c0,1.67-.74,4.77-1.12,6.08-.31,1.3-.37,1.36-1.61,1.36-9.11,0-18.35-.25-27.9-.25-.62,0-.99-.06-.99-.43,0-.25.06-.62.74-1.61,8.18-11.84,16.24-23.56,23.75-35.28h-11.53c-2.79,0-6.01-.06-7.75.87-1.92.99-2.91,2.91-3.1,4.15-.12.81-.43.93-.74.93-.25,0-.31-.25-.31-.68,0-.62.81-5.39,1.12-7.01.06-.74.19-.99.5-.99.5,0,.87.31,2.29.37,5.21.19,7.81.12,9.55.12h15.25c.81,0,1.12.12,1.12.43,0,.25-.06.62-.31.93-7.94,12.15-15.87,23.93-24.12,35.9h14.51Z" />
      <path class="cls-1"
        d="M298.15,20.25c.68-1.74.93-2.05,1.3-2.05.56,0,.74.74,1.3,1.92.99,2.23,9.73,23.99,13.08,31.99,1.98,4.71,3.47,5.39,4.65,5.77.81.25,1.61.31,2.17.31.31,0,.68.12.68.43s-.62.43-1.24.43c-.81,0-4.84,0-8.62-.12-1.05-.06-1.92-.06-1.92-.37,0-.25.12-.25.37-.37.31-.12.87-.56.5-1.43l-4.9-12.09c-.12-.25-.19-.31-.5-.31h-12.59c-.25,0-.43.12-.56.43l-3.1,8.43c-.5,1.3-.81,2.6-.81,3.53,0,1.05.93,1.43,1.86,1.43h.5c.43,0,.56.19.56.43,0,.31-.31.43-.81.43-1.3,0-4.28-.19-4.9-.19-.56,0-3.29.19-5.52.19-.68,0-1.05-.12-1.05-.43,0-.25.25-.43.5-.43.37,0,1.18-.06,1.61-.12,2.48-.31,3.53-2.17,4.59-4.84l12.83-32.98ZM304.23,42.2c.25,0,.25-.12.19-.37l-5.39-14.45c-.31-.81-.62-.81-.93,0l-5.08,14.45c-.06.25,0,.37.19.37h11.04Z" />
      <path class="cls-1"
        d="M369.02,35.13l-9.92-16.68c-1.43-2.42-2.73-4.22-4.84-4.96-.99-.31-2.23-.43-2.6-.43s-.56-.19-.56-.43c0-.31.25-.43,1.05-.43,1.74,0,6.76.19,7.25.19.56,0,3.72-.19,5.83-.19.87,0,1.05.12,1.05.43s-.19.43-.56.43-1.18,0-1.67.19c-.56.19-.74.62-.74,1.05,0,.62.25,1.36.62,2.05,2.6,4.9,5.15,9.49,8.37,14.82,1.86-2.67,8.49-13.27,9.11-14.57.43-.93.62-1.49.62-2.23,0-.43-.43-.93-1.05-1.12-.62-.19-1.49-.19-1.86-.19s-.56-.12-.56-.43c0-.25.31-.43,1.05-.43,2.36,0,4.96.19,5.52.19s3.1-.19,5.21-.19c.68,0,.99.19.99.43s-.25.43-.68.43-1.36.06-2.05.31c-1.8.56-2.98,2.36-4.77,5.02l-9.98,15c1.18,1.92,11.78,19.96,13.08,21.64.99,1.3,1.86,2.23,3.66,2.79.87.25,1.8.37,2.17.37.31,0,.5.12.5.37,0,.31-.31.5-.87.5-3.78,0-6.76,0-9.92-.12-1.61-.06-1.92-.19-1.92-.5,0-.25.12-.43.37-.5.31-.12.87-.74.31-1.74-3.35-6.08-6.94-12.21-10.66-18.47l-9.67,16.43c-.56.99-.81,2.11-.81,2.73s.43,1.05.99,1.18c.37.06.87.12,1.18.12s.5.19.5.43c0,.31-.31.43-.74.43-1.49,0-5.39-.19-5.95-.19s-3.6.19-5.64.19c-.5,0-.62-.19-.62-.43s.19-.43.5-.43c.5,0,1.43-.06,2.36-.31,1.86-.5,3.16-1.86,5.15-5.02l11.22-17.73Z" />
      <path class="cls-1"
        d="M410.49,43.75c0,5.08,0,9.24.25,11.41.19,1.55.37,2.54,1.98,2.79.81.12,1.98.25,2.48.25.31,0,.43.25.43.43,0,.25-.25.43-.87.43-3.04,0-6.57-.19-6.82-.19-.31,0-3.72.19-5.39.19-.56,0-.87-.12-.87-.43,0-.19.12-.43.43-.43.5,0,1.18-.12,1.67-.25,1.05-.25,1.24-1.24,1.43-2.79.25-2.17.31-6.32.31-11.41v-9.3c0-8.18,0-9.67-.12-11.35-.12-1.8-.56-2.6-1.74-2.85-.62-.12-1.3-.19-1.67-.19-.25,0-.43-.25-.43-.43,0-.31.25-.43.87-.43,1.8,0,5.21.12,5.52.12.25,0,3.78-.12,5.46-.12.62,0,.87.12.87.43,0,.19-.25.43-.43.43-.37,0-.74,0-1.36.12-1.49.31-1.8,1.05-1.92,2.91-.06,1.67-.06,3.16-.06,11.35v9.3Z" />
      <path class="cls-1"
        d="M439.01,20.25c.68-1.74.93-2.05,1.3-2.05.56,0,.74.74,1.3,1.92.99,2.23,9.73,23.99,13.08,31.99,1.98,4.71,3.47,5.39,4.65,5.77.81.25,1.61.31,2.17.31.31,0,.68.12.68.43s-.62.43-1.24.43c-.81,0-4.84,0-8.62-.12-1.05-.06-1.92-.06-1.92-.37,0-.25.12-.25.37-.37.31-.12.87-.56.5-1.43l-4.9-12.09c-.12-.25-.19-.31-.5-.31h-12.58c-.25,0-.43.12-.56.43l-3.1,8.43c-.5,1.3-.81,2.6-.81,3.53,0,1.05.93,1.43,1.86,1.43h.5c.43,0,.56.19.56.43,0,.31-.31.43-.81.43-1.3,0-4.28-.19-4.9-.19-.56,0-3.29.19-5.52.19-.68,0-1.05-.12-1.05-.43,0-.25.25-.43.5-.43.37,0,1.18-.06,1.61-.12,2.48-.31,3.53-2.17,4.59-4.84l12.83-32.98ZM445.09,42.2c.25,0,.25-.12.19-.37l-5.39-14.45c-.31-.81-.62-.81-.93,0l-5.08,14.45c-.06.25,0,.37.19.37h11.04Z" />
      <path class="cls-1"
        d="M487.87,18.45c12.28,0,21.58,7.5,21.58,19.78s-8.74,21.51-21.88,21.51c-14.94,0-21.33-11.22-21.33-20.71,0-8.49,6.57-20.58,21.64-20.58ZM489.11,57.57c4.9,0,14.75-2.6,14.75-17.86,0-12.65-7.69-19.28-16.3-19.28-9.11,0-15.69,5.7-15.69,17.17,0,12.28,7.38,19.96,17.24,19.96Z" />
      <path class="cls-1"
        d="M566.05,52.24c.19,1.86.56,4.71,2.79,5.46,1.55.5,2.98.5,3.53.5.25,0,.43.12.43.37,0,.31-.5.5-1.12.5-1.24,0-7.32-.12-9.3-.31-1.3-.12-1.55-.31-1.55-.56,0-.19.12-.37.37-.43.31-.06.37-.87.25-1.86l-2.6-26.66h-.12l-13.14,26.91c-1.12,2.29-1.43,2.79-1.92,2.79s-.81-.5-1.86-2.42c-1.43-2.6-5.02-9.36-6.39-12.21-1.61-3.35-6.01-12.21-6.94-14.38h-.25l-2.11,23.81c-.06.81-.06,1.8-.06,2.67,0,.81.5,1.3,1.3,1.49.93.25,1.74.31,2.11.31.19,0,.43.19.43.37,0,.37-.37.5-.99.5-2.05,0-4.65-.19-5.08-.19-.5,0-3.1.19-4.59.19-.56,0-.93-.12-.93-.5,0-.19.25-.37.56-.37.43,0,.81-.06,1.61-.19,1.8-.31,1.86-2.23,2.11-4.22l3.97-34.41c.06-.56.31-.93.62-.93.37,0,.81.19,1.12.81l16.49,32.73,15.87-32.67c.25-.5.5-.87.87-.87s.68.43.81,1.43l3.72,32.36Z" />
      <path class="cls-1"
        d="M594.45,20.25c.68-1.74.93-2.05,1.3-2.05.56,0,.74.74,1.3,1.92.99,2.23,9.73,23.99,13.08,31.99,1.98,4.71,3.47,5.39,4.65,5.77.81.25,1.61.31,2.17.31.31,0,.68.12.68.43s-.62.43-1.24.43c-.81,0-4.84,0-8.62-.12-1.05-.06-1.92-.06-1.92-.37,0-.25.12-.25.37-.37.31-.12.87-.56.5-1.43l-4.9-12.09c-.12-.25-.19-.31-.5-.31h-12.59c-.25,0-.43.12-.56.43l-3.1,8.43c-.5,1.3-.81,2.6-.81,3.53,0,1.05.93,1.43,1.86,1.43h.5c.43,0,.56.19.56.43,0,.31-.31.43-.81.43-1.3,0-4.28-.19-4.9-.19-.56,0-3.29.19-5.52.19-.68,0-1.05-.12-1.05-.43,0-.25.25-.43.5-.43.37,0,1.18-.06,1.61-.12,2.48-.31,3.53-2.17,4.59-4.84l12.83-32.98ZM600.52,42.2c.25,0,.25-.12.19-.37l-5.39-14.45c-.31-.81-.62-.81-.93,0l-5.08,14.45c-.06.25,0,.37.19.37h11.04Z" />
    </g>
    <g>
      <path class="cls-2"
        d="M54.98,53.49c.18,1.8.54,4.56,2.7,5.28,1.5.48,2.88.48,3.42.48.24,0,.42.12.42.36,0,.3-.48.48-1.08.48-1.2,0-7.08-.12-9-.3-1.26-.12-1.5-.3-1.5-.54,0-.18.12-.36.36-.42.3-.06.36-.84.24-1.8l-2.52-25.8h-.12l-12.72,26.04c-1.08,2.22-1.38,2.7-1.86,2.7s-.78-.48-1.8-2.34c-1.38-2.52-4.86-9.06-6.18-11.82-1.56-3.24-5.82-11.82-6.72-13.92h-.24l-2.04,23.04c-.06.78-.06,1.74-.06,2.58,0,.78.48,1.26,1.26,1.44.9.24,1.68.3,2.04.3.18,0,.42.18.42.36,0,.36-.36.48-.96.48-1.98,0-4.5-.18-4.92-.18-.48,0-3,.18-4.44.18-.54,0-.9-.12-.9-.48,0-.18.24-.36.54-.36.42,0,.78-.06,1.56-.18,1.74-.3,1.8-2.16,2.04-4.08l3.84-33.3c.06-.54.3-.9.6-.9.36,0,.78.18,1.08.78l15.96,31.68,15.36-31.62c.24-.48.48-.84.84-.84s.66.42.78,1.38l3.6,31.32Z" />
      <path class="cls-2"
        d="M31.58,31.72l-9.6-16.14c-1.38-2.34-2.64-4.08-4.68-4.8-.96-.3-2.16-.42-2.52-.42s-.54-.18-.54-.42c0-.3.24-.42,1.02-.42,1.68,0,6.54.18,7.02.18.54,0,3.6-.18,5.64-.18.84,0,1.02.12,1.02.42s-.18.42-.54.42-1.14,0-1.62.18c-.54.18-.72.6-.72,1.02,0,.6.24,1.32.6,1.98,2.52,4.74,4.98,9.18,8.1,14.34,1.8-2.58,8.22-12.84,8.82-14.1.42-.9.6-1.44.6-2.16,0-.42-.42-.9-1.02-1.08-.6-.18-1.44-.18-1.8-.18s-.54-.12-.54-.42c0-.24.3-.42,1.02-.42,2.28,0,4.8.18,5.34.18s3-.18,5.04-.18c.66,0,.96.18.96.42s-.24.42-.66.42-1.32.06-1.98.3c-1.74.54-2.88,2.28-4.62,4.86l-9.66,14.52c1.14,1.86,11.4,19.32,12.66,20.94.96,1.26,1.8,2.16,3.54,2.7.84.24,1.74.36,2.1.36.3,0,.48.12.48.36,0,.3-.3.48-.84.48-3.66,0-6.54,0-9.6-.12-1.56-.06-1.86-.18-1.86-.48,0-.24.12-.42.36-.48.3-.12.84-.72.3-1.68-3.24-5.88-6.72-11.82-10.32-17.88l-9.36,15.9c-.54.96-.78,2.04-.78,2.64s.42,1.02.96,1.14c.36.06.84.12,1.14.12s.48.18.48.42c0,.3-.3.42-.72.42-1.44,0-5.22-.18-5.76-.18s-3.48.18-5.46.18c-.48,0-.6-.18-.6-.42s.18-.42.48-.42c.48,0,1.38-.06,2.28-.3,1.8-.48,3.06-1.8,4.98-4.86l10.86-17.16Z" />
    </g>
    <path class="cls-2" d="M69.23,69.23H0V0h69.23v69.23ZM1.2,68.03h66.83V1.2H1.2v66.83Z" />
  </g>
</svg>