<svg width="108" height="97" viewBox="0 0 108 97" fill="none" xmlns="http://www.w3.org/2000/svg">
<path d="M77.5209 11.0696C65.9155 17.0506 53.1821 21.1461 39.7233 22.9532C34.5826 23.6434 29.3341 24.0001 24 24.0001C10.7452 24.0001 0 34.7452 0 48.0001C0 60.2306 9.1486 70.3243 20.9758 71.8113C22.7269 78.6377 25.2587 85.3611 28.6023 91.859C30.9816 96.483 36.6541 97.8519 40.9058 95.3972L46.1019 92.3972C50.4608 89.8805 51.745 84.4707 49.6337 80.2693C48.6371 78.2864 47.7411 76.2772 46.9436 74.2479C57.7457 76.3952 68.0119 80.0299 77.5209 84.9305C81.7132 73.4085 84 60.9713 84 48C84 35.0287 81.7133 22.5916 77.5209 11.0696Z" fill="#E7EFFA"/>
<path d="M77.5209 11.0696C65.9155 17.0506 53.1821 21.1461 39.7233 22.9532C34.5826 23.6434 29.3341 24.0001 24 24.0001C10.7452 24.0001 0 34.7452 0 48.0001C0 60.2306 9.1486 70.3243 20.9758 71.8113C22.7269 78.6377 25.2587 85.3611 28.6023 91.859C30.9816 96.483 36.6541 97.8519 40.9058 95.3972L46.1019 92.3972C50.4608 89.8805 51.745 84.4707 49.6337 80.2693C48.6371 78.2864 47.7411 76.2772 46.9436 74.2479C57.7457 76.3952 68.0119 80.0299 77.5209 84.9305C81.7132 73.4085 84 60.9713 84 48C84 35.0287 81.7133 22.5916 77.5209 11.0696Z" fill="#E7EFFA" fillOpacity="0.2"/>
<path d="M85.4566 6.57935C90.3317 19.4553 93 33.416 93 48C93 62.584 90.3316 76.5448 85.4565 89.4207C85.4562 89.4205 85.4569 89.421 85.4565 89.4207L85.2812 89.8842C84.3913 92.2047 85.551 94.8072 87.8714 95.6972C90.1919 96.5871 92.7945 95.4275 93.6844 93.107C94.201 91.7601 94.6951 90.402 95.1663 89.0333C98.491 79.376 100.675 69.1896 101.557 58.6372C105.387 56.633 108 52.6244 108 48.0001C108 43.3757 105.387 39.3672 101.557 37.3629C100.675 26.8105 98.491 16.6241 95.1663 6.96682C94.6951 5.59808 94.201 4.24003 93.6844 2.89313C92.7945 0.572648 90.1919 -0.587033 87.8714 0.302909C85.551 1.19285 84.3913 3.79541 85.2812 6.11589L85.4566 6.57935C85.4569 6.57914 85.4562 6.57957 85.4566 6.57935Z" fill="#E7EFFA"/>
<path d="M85.4566 6.57935C90.3317 19.4553 93 33.416 93 48C93 62.584 90.3316 76.5448 85.4565 89.4207C85.4562 89.4205 85.4569 89.421 85.4565 89.4207L85.2812 89.8842C84.3913 92.2047 85.551 94.8072 87.8714 95.6972C90.1919 96.5871 92.7945 95.4275 93.6844 93.107C94.201 91.7601 94.6951 90.402 95.1663 89.0333C98.491 79.376 100.675 69.1896 101.557 58.6372C105.387 56.633 108 52.6244 108 48.0001C108 43.3757 105.387 39.3672 101.557 37.3629C100.675 26.8105 98.491 16.6241 95.1663 6.96682C94.6951 5.59808 94.201 4.24003 93.6844 2.89313C92.7945 0.572648 90.1919 -0.587033 87.8714 0.302909C85.551 1.19285 84.3913 3.79541 85.2812 6.11589L85.4566 6.57935C85.4569 6.57914 85.4562 6.57957 85.4566 6.57935Z" fill="#E7EFFA" fillOpacity="0.2"/>
</svg>
