<svg width="24" height="24" viewBox="0 0 24 24" fill="none" xmlns="http://www.w3.org/2000/svg">
<path d="M18.1331 1H5.85586C3.18018 1 1 3.178 1 5.851V13.001V13.221C1 15.905 3.18018 18.072 5.85586 18.072H10.0841C10.6897 18.072 11.1852 18.567 11.1852 19.172V20.239C11.1852 20.844 10.6897 21.339 10.0841 21.339H7.41942C6.96797 21.339 6.59359 21.713 6.59359 22.164C6.59359 22.615 6.95696 23 7.41942 23H16.6136C17.0651 23 17.4394 22.626 17.4394 22.175C17.4394 21.724 17.0651 21.35 16.6136 21.35H13.9489C13.3433 21.35 12.8478 20.855 12.8478 20.25V19.183C12.8478 18.578 13.3433 18.083 13.9489 18.083H18.1441C20.8308 18.083 23 15.905 23 13.232V13.012V5.862C22.989 3.178 20.8088 1 18.1331 1Z" fill="#1677FF"/>
<path d="M18.1331 1H5.85586C3.18018 1 1 3.178 1 5.851V13.001V13.221C1 15.905 3.18018 18.072 5.85586 18.072H10.0841C10.6897 18.072 11.1852 18.567 11.1852 19.172V20.239C11.1852 20.844 10.6897 21.339 10.0841 21.339H7.41942C6.96797 21.339 6.59359 21.713 6.59359 22.164C6.59359 22.615 6.95696 23 7.41942 23H16.6136C17.0651 23 17.4394 22.626 17.4394 22.175C17.4394 21.724 17.0651 21.35 16.6136 21.35H13.9489C13.3433 21.35 12.8478 20.855 12.8478 20.25V19.183C12.8478 18.578 13.3433 18.083 13.9489 18.083H18.1441C20.8308 18.083 23 15.905 23 13.232V13.012V5.862C22.989 3.178 20.8088 1 18.1331 1Z" fill="black" fill-opacity="0.2"/>
</svg>
