<svg width="120" height="120" viewBox="0 0 120 120" fill="none" xmlns="http://www.w3.org/2000/svg">
<path d="M80.95 10H63.75V40V43.75V68.75H110V43.75V40V39.05C110 20.85 99.15 10 80.95 10Z" fill="#E7EFEA"/>
<path d="M80.95 10H63.75V40V43.75V68.75H110V43.75V40V39.05C110 20.85 99.15 10 80.95 10Z" fill="#E7EFFA" fillOpacity="0.2"/>
<path d="M10 51.25V76.25V78.75V80.95C10 99.15 20.85 110 39.05 110H56.25V78.75V76.25V51.25H10Z" fill="#E7EFEA"/>
<path d="M10 51.25V76.25V78.75V80.95C10 99.15 20.85 110 39.05 110H56.25V78.75V76.25V51.25H10Z" fill="#E7EFFA" fillOpacity="0.2"/>
<path d="M56.25 10V43.75H10V39.05C10 20.85 20.85 10 39.05 10H56.25Z" fill="#E7EFEA"/>
<path d="M56.25 10V43.75H10V39.05C10 20.85 20.85 10 39.05 10H56.25Z" fill="#E7EFFA" fillOpacity="0.2"/>
<path d="M110 76.25V80.95C110 99.15 99.15 110 80.95 110H63.75V76.25H110Z" fill="#E7EFEA"/>
<path d="M110 76.25V80.95C110 99.15 99.15 110 80.95 110H63.75V76.25H110Z" fill="#E7EFFA" fillOpacity="0.2"/>
</svg>
