<svg width="16" height="18" viewBox="0 0 16 18" fill="none" xmlns="http://www.w3.org/2000/svg">
<path d="M10.2144 6.69231L9.93465 13.6154M6.06519 13.6154L5.78547 6.69231M13.8404 4.22351C14.1168 4.26324 14.3922 4.30575 14.6666 4.35099M13.8404 4.22351L12.9775 14.902C12.9047 15.8037 12.1148 16.5 11.1647 16.5H4.83513C3.88506 16.5 3.09517 15.8037 3.0223 14.902L2.15939 4.22351M13.8404 4.22351C12.914 4.09034 11.9769 3.98835 11.0302 3.91871M1.33325 4.35099C1.60766 4.30575 1.88305 4.26324 2.15939 4.22351M2.15939 4.22351C3.0858 4.09034 4.02294 3.98835 4.96962 3.91871M11.0302 3.91871V3.21399C11.0302 2.30679 10.2943 1.54941 9.3418 1.5204C8.89626 1.50684 8.44893 1.5 7.99992 1.5C7.55091 1.5 7.10358 1.50684 6.65803 1.5204C5.7055 1.54941 4.96962 2.30679 4.96962 3.21399V3.91871M11.0302 3.91871C10.0303 3.84515 9.01969 3.80769 7.99992 3.80769C6.98015 3.80769 5.96957 3.84515 4.96962 3.91871" stroke="#CC4429" strokeWidth="1.5" strokeLinecap="round" strokeLinejoin="round"/>
</svg>
