<svg width="16" height="16" viewBox="0 0 16 16" fill="none" xmlns="http://www.w3.org/2000/svg">
<path d="M5.33325 11.1663H3.61992C1.82659 11.1663 0.833252 10.1797 0.833252 8.37967V3.61967C0.833252 1.82634 1.81992 0.833008 3.61992 0.833008H6.66659C8.45992 0.833008 9.45325 1.81967 9.45325 3.61967C9.45325 3.89301 9.22659 4.11967 8.95325 4.11967C8.67992 4.11967 8.45325 3.89301 8.45325 3.61967C8.45325 2.36634 7.91992 1.83301 6.66659 1.83301H3.61992C2.36659 1.83301 1.83325 2.36634 1.83325 3.61967V8.37967C1.83325 9.63301 2.36659 10.1663 3.61992 10.1663H5.33325C5.60659 10.1663 5.83325 10.393 5.83325 10.6663C5.83325 10.9397 5.60659 11.1663 5.33325 11.1663Z" fill="#3F4252"/>
<path d="M12.38 15.1663H9.3333C7.53996 15.1663 6.54663 14.1797 6.54663 12.3797V7.61967C6.54663 5.82634 7.5333 4.83301 9.3333 4.83301H12.38C14.1733 4.83301 15.1666 5.81967 15.1666 7.61967V12.3797C15.1666 14.1797 14.18 15.1663 12.38 15.1663ZM9.3333 5.83301C8.07996 5.83301 7.54663 6.36634 7.54663 7.61967V12.3797C7.54663 13.633 8.07996 14.1663 9.3333 14.1663H12.38C13.6333 14.1663 14.1666 13.633 14.1666 12.3797V7.61967C14.1666 6.36634 13.6333 5.83301 12.38 5.83301H9.3333Z" fill="#3F4252"/>
<path d="M12.0866 10.5H9.91992C9.64659 10.5 9.41992 10.2733 9.41992 10C9.41992 9.72667 9.64659 9.5 9.91992 9.5H12.0866C12.3599 9.5 12.5866 9.72667 12.5866 10C12.5866 10.2733 12.3599 10.5 12.0866 10.5Z" fill="#3F4252"/>
<path d="M11 11.5866C10.7267 11.5866 10.5 11.3599 10.5 11.0866V8.91992C10.5 8.64659 10.7267 8.41992 11 8.41992C11.2733 8.41992 11.5 8.64659 11.5 8.91992V11.0866C11.5 11.3599 11.2733 11.5866 11 11.5866Z" fill="#3F4252"/>
</svg>
