<svg width="120" height="120" viewBox="0 0 120 120" fill="none" xmlns="http://www.w3.org/2000/svg">
<path d="M85 17.5H35C20 17.5 10 25 10 42.5V77.5C10 95 20 102.5 35 102.5H85C100 102.5 110 95 110 77.5V42.5C110 25 100 17.5 85 17.5ZM87.35 47.95L71.7 60.45C68.4 63.1 64.2 64.4 60 64.4C55.8 64.4 51.55 63.1 48.3 60.45L32.65 47.95C31.05 46.65 30.8 44.25 32.05 42.65C33.35 41.05 35.7 40.75 37.3 42.05L52.95 54.55C56.75 57.6 63.2 57.6 67 54.55L82.65 42.05C84.25 40.75 86.65 41 87.9 42.65C89.2 44.25 88.95 46.65 87.35 47.95Z" fill="#E7EFFA"/>
<path d="M85 17.5H35C20 17.5 10 25 10 42.5V77.5C10 95 20 102.5 35 102.5H85C100 102.5 110 95 110 77.5V42.5C110 25 100 17.5 85 17.5ZM87.35 47.95L71.7 60.45C68.4 63.1 64.2 64.4 60 64.4C55.8 64.4 51.55 63.1 48.3 60.45L32.65 47.95C31.05 46.65 30.8 44.25 32.05 42.65C33.35 41.05 35.7 40.75 37.3 42.05L52.95 54.55C56.75 57.6 63.2 57.6 67 54.55L82.65 42.05C84.25 40.75 86.65 41 87.9 42.65C89.2 44.25 88.95 46.65 87.35 47.95Z" fill="#E7EFFA" fillOpacity="0.2"/>
</svg>
