<svg width="80" height="80" viewBox="0 0 80 80" fill="none" xmlns="http://www.w3.org/2000/svg">
<path d="M8.59992 63.3666L8.53325 63.4333C7.63325 61.4666 7.06659 59.2333 6.83325 56.7666C7.06659 59.1999 7.69992 61.3999 8.59992 63.3666Z" fill="white"/>
<path d="M30 34.6001C34.3814 34.6001 37.9333 31.0482 37.9333 26.6667C37.9333 22.2853 34.3814 18.7334 30 18.7334C25.6185 18.7334 22.0667 22.2853 22.0667 26.6667C22.0667 31.0482 25.6185 34.6001 30 34.6001Z" fill="white"/>
<path d="M53.9668 6.66663H26.0334C13.9001 6.66663 6.66675 13.9 6.66675 26.0333V53.9666C6.66675 57.6 7.30008 60.7666 8.53341 63.4333C11.4001 69.7666 17.5334 73.3333 26.0334 73.3333H53.9668C66.1001 73.3333 73.3334 66.1 73.3334 53.9666V46.3333V26.0333C73.3334 13.9 66.1001 6.66663 53.9668 6.66663ZM67.9001 41.6666C65.3001 39.4333 61.1001 39.4333 58.5001 41.6666L44.6334 53.5666C42.0334 55.8 37.8334 55.8 35.2334 53.5666L34.1001 52.6333C31.7334 50.5666 27.9667 50.3666 25.3001 52.1666L12.8334 60.5333C12.1001 58.6666 11.6667 56.5 11.6667 53.9666V26.0333C11.6667 16.6333 16.6334 11.6666 26.0334 11.6666H53.9668C63.3668 11.6666 68.3334 16.6333 68.3334 26.0333V42.0333L67.9001 41.6666Z" fill="white"/>
</svg>
