<svg width="16" height="16" viewBox="0 0 16 16" fill="none" xmlns="http://www.w3.org/2000/svg">
<path fillRule="evenodd" clipRule="evenodd" d="M0 0V16H16V0H0ZM0.49962 15.6028V0.460164H15.603V15.6028H0.49962Z" fill="#1A1A1A"/>
<path fillRule="evenodd" clipRule="evenodd" d="M6.45936 2.54951L6.4603 2.54905C6.58503 2.48647 6.7087 2.42442 6.8461 2.35573C6.23711 2.18584 3.59452 2.22598 3.3204 2.41058C3.36742 2.42358 3.41204 2.43659 3.45511 2.44914C3.54934 2.47661 3.63611 2.5019 3.72415 2.52026C4.25888 2.63396 4.66128 2.9229 4.9408 3.3911C5.23066 3.87756 5.52156 4.3632 5.81235 4.84866L5.81283 4.84946C6.26154 5.59854 6.71 6.3472 7.15398 7.09782C7.208 7.19012 7.23229 7.35198 7.18773 7.43893C6.9977 7.80933 6.79361 8.17198 6.57664 8.55752C6.50849 8.67858 6.43874 8.80252 6.36809 8.92908C6.33264 8.86242 6.30287 8.80717 6.27683 8.75893C6.2345 8.68036 6.20185 8.61978 6.17094 8.55853C6.0165 8.25455 5.86299 7.95005 5.70948 7.64557C5.34096 6.91459 4.97233 6.18339 4.59106 5.45915C4.496 5.27903 4.36181 5.11829 4.22776 4.95769C4.16569 4.88333 4.10365 4.809 4.04553 4.73279C3.81057 6.09589 3.65123 7.41084 3.49865 8.72581C3.42251 9.3799 3.3481 10.0343 3.27368 10.6887C3.1871 11.4502 3.1005 12.2118 3.01117 12.9729C2.97202 13.2993 2.81133 13.5294 2.4616 13.6097C2.41009 13.6216 2.36785 13.6697 2.30921 13.7366C2.27563 13.7748 2.23666 13.8193 2.18748 13.8665H4.53029C4.54042 13.8525 4.55089 13.8384 4.56135 13.8243C4.57182 13.8103 4.58228 13.7963 4.59241 13.7823C4.56149 13.7562 4.53194 13.7278 4.50245 13.6995C4.43921 13.6388 4.37625 13.5784 4.30074 13.5427C3.91185 13.3595 3.76871 13.088 3.86863 12.6185H6.02646C5.95997 12.5652 5.89993 12.5183 5.84491 12.4752C5.7133 12.3722 5.6103 12.2916 5.51604 12.2011C5.46337 12.1516 5.40935 12.0392 5.43231 11.987C5.562 11.6904 5.7024 11.3987 5.85606 11.0793C5.89919 10.9897 5.94337 10.8979 5.98864 10.8032L6.03664 10.8894C6.10834 11.0181 6.15293 11.0982 6.1966 11.1791C6.33973 11.444 6.48196 11.7092 6.62419 11.9745C6.90867 12.5052 7.19314 13.0358 7.48481 13.5628C7.65765 13.8732 7.844 13.8638 8.01008 13.5482C8.23829 13.1134 8.45839 12.6759 8.6731 12.2345C8.8186 11.9346 8.95914 11.6315 9.10728 11.3124C9.17901 11.1579 9.25278 10.9989 9.32936 10.8353C9.38531 10.9254 9.43605 11.0114 9.48458 11.0937C9.58581 11.2654 9.67757 11.4211 9.78708 11.563C10.0261 11.8733 10.1247 12.1783 9.86946 12.5234C9.86307 12.5316 9.86724 12.5478 9.87142 12.5641C9.87339 12.5718 9.87535 12.5794 9.8762 12.5864C10.4456 12.6134 11.0136 12.6392 11.6069 12.6661L11.6762 12.6692C11.6597 12.9097 11.6447 13.1311 11.629 13.3653L11.6019 13.7662C12.0556 13.7952 12.4987 13.8241 12.9335 13.8526C13.2413 13.8727 13.5457 13.8926 13.8462 13.9119C13.9461 13.6217 13.8273 13.5656 13.6288 13.5214C13.0644 13.397 12.8604 13.1749 12.7997 12.6586C12.7254 12.0307 12.6514 11.4028 12.5774 10.7748C12.358 8.9143 12.1387 7.05353 11.9125 5.19429C11.9033 5.12419 11.8485 5.06029 11.7936 4.99626C11.7677 4.96621 11.742 4.93611 11.7208 4.90535C11.6898 4.92664 11.6546 4.94563 11.6196 4.96455C11.5444 5.00508 11.4699 5.04534 11.4386 5.10735C11.2816 5.41988 11.1334 5.73634 10.9852 6.05274C10.8734 6.29154 10.7615 6.53037 10.6459 6.76741C10.4022 7.26754 10.1529 7.76489 9.8971 8.2754C9.79714 8.47486 9.69608 8.67647 9.594 8.88093C9.50309 8.72953 9.41337 8.581 9.32484 8.43451L9.32433 8.43368C9.0463 7.97355 8.78005 7.53294 8.52726 7.08578C8.48675 7.01355 8.53673 6.85436 8.59481 6.76741C8.85766 6.37062 9.12434 5.97623 9.39119 5.58178C9.84388 4.91241 10.2968 4.24272 10.731 3.56098C11.1023 2.97642 11.5412 2.52962 12.2569 2.41994C12.2749 2.41725 12.29 2.40021 12.306 2.38201C12.314 2.373 12.3222 2.3637 12.3311 2.35573C11.8801 2.19654 9.73582 2.22196 9.42931 2.39318C9.46266 2.40699 9.49473 2.42062 9.52603 2.43393C9.57967 2.45672 9.63118 2.4786 9.68312 2.49886C10.2611 2.71958 10.2962 2.81322 9.99909 3.36033L9.9857 3.38458C9.96856 3.41562 9.95117 3.44703 9.93291 3.4767C9.77889 3.72573 9.62495 3.97486 9.47102 4.22402C9.06771 4.87673 8.66406 5.53009 8.25855 6.1815C8.2359 6.21806 8.20544 6.24946 8.16103 6.29525C8.13392 6.32318 8.10163 6.35646 8.06274 6.39955L7.48924 5.3784C6.9965 4.50113 6.51224 3.63897 6.02375 2.76774C6.18334 2.68799 6.32217 2.61833 6.45936 2.54951ZM8.21876 11.7326C8.13894 11.8953 8.05692 12.0625 7.97228 12.2358C7.87793 12.0392 7.79385 11.8481 7.71265 11.6635C7.53697 11.2641 7.37475 10.8953 7.15127 10.5678C6.70567 9.91232 6.71647 9.34509 7.21879 8.75251C7.29981 8.65713 7.36163 8.5462 7.42344 8.43535C7.45435 8.37991 7.48526 8.32447 7.51857 8.27097C7.64144 8.07299 7.76433 8.05961 7.88855 8.2723C7.98324 8.43505 8.07858 8.59739 8.17389 8.75969C8.417 9.17358 8.66005 9.58739 8.89186 10.0073C8.94047 10.0942 8.93373 10.2481 8.88913 10.343C8.67839 10.7957 8.45857 11.2438 8.21876 11.7326ZM4.42902 7.54193C4.41417 7.54461 4.39898 7.54695 4.38378 7.54929C4.36859 7.55163 4.3534 7.55397 4.33855 7.55664L4.30573 7.91704C4.17355 9.36837 4.04144 10.8191 3.91049 12.2706C3.92872 12.2814 3.94694 12.2917 3.96517 12.3021C3.98339 12.3125 4.00164 12.3228 4.01987 12.3335C4.13013 12.1837 4.23748 12.0316 4.34481 11.8794C4.58057 11.5452 4.81627 11.211 5.08258 10.9022C5.5822 10.3203 5.62271 9.77588 5.20006 9.12441C4.97961 8.78571 4.81603 8.41186 4.65254 8.03819C4.57969 7.87169 4.50686 7.70522 4.42902 7.54193ZM11.112 7.43551C11.1187 7.43755 11.1254 7.43957 11.132 7.4416C11.2819 8.92376 11.4331 10.4059 11.5857 11.8867C11.5682 11.8974 11.552 11.9081 11.5358 11.9189C11.4934 11.8642 11.4496 11.8102 11.4058 11.7563C11.3058 11.6333 11.2057 11.51 11.1213 11.377C10.7998 10.8688 10.4852 10.3564 10.1868 9.83468C10.122 9.72232 10.0815 9.54312 10.1274 9.43338C10.3382 8.92621 10.5647 8.4264 10.7914 7.92629C10.8696 7.75372 10.9478 7.58112 11.0254 7.40816C11.0538 7.41792 11.0831 7.4268 11.112 7.43551Z" fill="#1A1A1A"/>
</svg>
