<svg width="16" height="16" viewBox="0 0 16 16" fill="none" xmlns="http://www.w3.org/2000/svg">
<path d="M7.99986 14.5691C4.37598 14.5691 1.43042 11.6235 1.43042 7.99962C1.43042 4.37573 4.37598 1.43018 7.99986 1.43018C8.25042 1.43018 8.4582 1.63795 8.4582 1.88851C8.4582 2.13906 8.25042 2.34684 7.99986 2.34684C4.8832 2.34684 2.34709 4.88295 2.34709 7.99962C2.34709 11.1163 4.8832 13.6524 7.99986 13.6524C11.1165 13.6524 13.6526 11.1163 13.6526 7.99962C13.6526 7.74906 13.8604 7.54129 14.111 7.54129C14.3615 7.54129 14.5693 7.74906 14.5693 7.99962C14.5693 11.6235 11.6238 14.5691 7.99986 14.5691Z" fill="#CC4429"/>
<path d="M9.10012 7.35838C8.984 7.35838 8.86789 7.3156 8.77623 7.22394C8.599 7.04671 8.599 6.75338 8.77623 6.57616L13.7873 1.56505C13.9646 1.38782 14.2579 1.38782 14.4351 1.56505C14.6123 1.74227 14.6123 2.0356 14.4351 2.21282L9.424 7.22394C9.33845 7.30949 9.22234 7.35838 9.10012 7.35838Z" fill="#CC4429"/>
<path d="M11.5631 7.84685H8.61141C8.36085 7.84685 8.15308 7.63907 8.15308 7.38852V4.43685C8.15308 4.18629 8.36085 3.97852 8.61141 3.97852C8.86197 3.97852 9.06974 4.18629 9.06974 4.43685V6.93018H11.5631C11.8136 6.93018 12.0214 7.13796 12.0214 7.38852C12.0214 7.63907 11.8136 7.84685 11.5631 7.84685Z" fill="#CC4429"/>
</svg>
