<svg width="16" height="16" viewBox="0 0 16 16" fill="none" xmlns="http://www.w3.org/2000/svg">
<path d="M11.1875 2H4.8125C3.2592 2 2 3.2592 2 4.8125V11.1875C2 12.7408 3.2592 14 4.8125 14H11.1875C12.7408 14 14 12.7408 14 11.1875V4.8125C14 3.2592 12.7408 2 11.1875 2Z" fill="url(#paint0_radial_3469_37020)"/>
<path d="M11.1875 2H4.8125C3.2592 2 2 3.2592 2 4.8125V11.1875C2 12.7408 3.2592 14 4.8125 14H11.1875C12.7408 14 14 12.7408 14 11.1875V4.8125C14 3.2592 12.7408 2 11.1875 2Z" fill="url(#paint1_radial_3469_37020)" stroke="white"/>
<path d="M8.00042 3.3125C6.72739 3.3125 6.56759 3.31808 6.06763 3.34081C5.56859 3.36369 5.22795 3.44267 4.92992 3.55859C4.62158 3.67831 4.36006 3.83848 4.09953 4.09911C3.83877 4.35969 3.67859 4.6212 3.5585 4.92941C3.44225 5.22753 3.36317 5.56831 3.34072 6.06711C3.31836 6.56712 3.3125 6.72697 3.3125 8.00005C3.3125 9.27313 3.31813 9.43241 3.34081 9.93237C3.36378 10.4314 3.44277 10.772 3.55859 11.0701C3.67841 11.3784 3.83858 11.6399 4.0992 11.9005C4.35969 12.1612 4.6212 12.3218 4.92931 12.4415C5.22758 12.5574 5.56827 12.6364 6.0672 12.6593C6.56722 12.682 6.72688 12.6876 7.99986 12.6876C9.27303 12.6876 9.43231 12.682 9.93228 12.6593C10.4313 12.6364 10.7723 12.5574 11.0706 12.4415C11.3788 12.3218 11.6399 12.1612 11.9004 11.9005C12.1611 11.6399 12.3213 11.3784 12.4414 11.0702C12.5566 10.772 12.6357 10.4313 12.6592 9.93247C12.6816 9.4325 12.6875 9.27313 12.6875 8.00005C12.6875 6.72697 12.6816 6.56722 12.6592 6.0672C12.6357 5.56817 12.5566 5.22758 12.4414 4.92955C12.3213 4.6212 12.1611 4.35969 11.9004 4.09911C11.6397 3.83839 11.3789 3.67822 11.0703 3.55864C10.7715 3.44267 10.4307 3.36364 9.93162 3.34081C9.43161 3.31808 9.27242 3.3125 7.99897 3.3125H8.00042ZM7.57991 4.15723C7.70473 4.15705 7.844 4.15723 8.00042 4.15723C9.25203 4.15723 9.40034 4.16173 9.89459 4.18419C10.3516 4.20509 10.5997 4.28145 10.7649 4.34563C10.9837 4.43056 11.1396 4.53214 11.3036 4.69625C11.4677 4.86031 11.5692 5.01655 11.6544 5.23531C11.7185 5.40031 11.795 5.64838 11.8158 6.10541C11.8383 6.59956 11.8431 6.74797 11.8431 7.99897C11.8431 9.24997 11.8383 9.39842 11.8158 9.89253C11.7949 10.3496 11.7185 10.5976 11.6544 10.7627C11.5694 10.9814 11.4677 11.1372 11.3036 11.3012C11.1395 11.4652 10.9838 11.5668 10.7649 11.6518C10.5999 11.7162 10.3516 11.7924 9.89459 11.8133C9.40044 11.8357 9.25203 11.8406 8.00042 11.8406C6.74877 11.8406 6.60041 11.8357 6.1063 11.8133C5.64927 11.7922 5.4012 11.7158 5.23583 11.6517C5.01711 11.5667 4.86083 11.4651 4.69677 11.3011C4.5327 11.137 4.43117 10.9812 4.346 10.7623C4.28183 10.5972 4.20538 10.3492 4.18456 9.89216C4.16211 9.398 4.15761 9.24959 4.15761 7.9978C4.15761 6.746 4.16211 6.59839 4.18456 6.10423C4.20547 5.6472 4.28183 5.39914 4.346 5.23391C4.43098 5.01514 4.5327 4.85891 4.69681 4.69484C4.86092 4.53078 5.01711 4.4292 5.23587 4.34408C5.40111 4.27962 5.64927 4.20345 6.1063 4.18245C6.53872 4.16291 6.7063 4.15705 7.57991 4.15606V4.15723ZM10.5026 4.93555C10.1921 4.93555 9.94011 5.18727 9.94011 5.49786C9.94011 5.80841 10.1921 6.06036 10.5026 6.06036C10.8132 6.06036 11.0651 5.80841 11.0651 5.49786C11.0651 5.18731 10.8132 4.93536 10.5026 4.93536V4.93555ZM8.00042 5.59278C6.67105 5.59278 5.5932 6.67063 5.5932 8.00005C5.5932 9.32947 6.67105 10.4068 8.00042 10.4068C9.32984 10.4068 10.4073 9.32947 10.4073 8.00005C10.4073 6.67067 9.32975 5.59278 8.00033 5.59278H8.00042ZM8.00042 6.43752C8.86334 6.43752 9.56295 7.13703 9.56295 8.00005C9.56295 8.86297 8.86334 9.56258 8.00042 9.56258C7.1375 9.56258 6.43794 8.86297 6.43794 8.00005C6.43794 7.13703 7.13745 6.43752 8.00042 6.43752Z" fill="white"/>
<defs>
<radialGradient id="paint0_radial_3469_37020" cx="0" cy="0" r="1" gradientUnits="userSpaceOnUse" gradientTransform="translate(5.1875 14.9242) rotate(-90) scale(11.8929 11.0613)">
<stop stop-color="#FFDD55"/>
<stop offset="0.1" stop-color="#FFDD55"/>
<stop offset="0.5" stop-color="#FF543E"/>
<stop offset="1" stop-color="#C837AB"/>
</radialGradient>
<radialGradient id="paint1_radial_3469_37020" cx="0" cy="0" r="1" gradientUnits="userSpaceOnUse" gradientTransform="translate(-0.0100469 2.86442) rotate(78.681) scale(5.31619 21.9135)">
<stop stop-color="#3771C8"/>
<stop offset="0.128" stop-color="#3771C8"/>
<stop offset="1" stop-color="#6600FF" stop-opacity="0"/>
</radialGradient>
</defs>
</svg>
