<svg width="16" height="16" viewBox="0 0 16 16" fill="none" xmlns="http://www.w3.org/2000/svg">
<path d="M11.2948 2H4.70525C3.21118 2 2 3.21118 2 4.70525V11.2948C2 12.7888 3.21118 14 4.70525 14H11.2948C12.7888 14 14 12.7888 14 11.2948V4.70525C14 3.21118 12.7888 2 11.2948 2Z" fill="#06C755" stroke="white"/>
<path d="M12.0002 7.43449C12.0002 5.64424 10.2054 4.18774 7.99928 4.18774C5.79316 4.18774 3.99878 5.64424 3.99878 7.43449C3.99878 9.03949 5.4219 10.3839 7.34453 10.6377C7.47465 10.6659 7.65203 10.7236 7.69703 10.835C7.73753 10.9362 7.72328 11.0945 7.71015 11.1969C7.71015 11.1969 7.6629 11.4792 7.65278 11.5392C7.63553 11.6405 7.57253 11.9349 7.99928 11.7549C8.42603 11.5749 10.3033 10.3981 11.1429 9.43212C11.7215 8.79649 12.0002 8.15112 12.0002 7.43449Z" fill="white"/>
<path d="M10.6685 8.46838H9.54351C9.52361 8.46838 9.50454 8.46048 9.49047 8.44641C9.47641 8.43235 9.46851 8.41327 9.46851 8.39338V6.64775C9.46851 6.62786 9.47641 6.60879 9.49047 6.59472C9.50454 6.58066 9.52361 6.57275 9.54351 6.57275H10.6685C10.6884 6.57275 10.7075 6.58066 10.7215 6.59472C10.7356 6.60879 10.7435 6.62786 10.7435 6.64775V6.93088C10.7435 6.95077 10.7356 6.96985 10.7215 6.98391C10.7075 6.99798 10.6884 7.00588 10.6685 7.00588H9.90463V7.30063H10.6685C10.6884 7.30063 10.7075 7.30853 10.7215 7.3226C10.7356 7.33666 10.7435 7.35574 10.7435 7.37563V7.65913C10.7435 7.67902 10.7356 7.6981 10.7215 7.71216C10.7075 7.72623 10.6884 7.73413 10.6685 7.73413H9.90463V8.02888H10.6685C10.6884 8.02888 10.7075 8.03678 10.7215 8.05085C10.7356 8.06491 10.7435 8.08399 10.7435 8.10388V8.39338C10.7435 8.41327 10.7356 8.43235 10.7215 8.44641C10.7075 8.46048 10.6884 8.46838 10.6685 8.46838Z" fill="#06C755"/>
<path d="M6.51087 8.46838C6.53076 8.46838 6.54984 8.46048 6.5639 8.44641C6.57797 8.43235 6.58587 8.41327 6.58587 8.39338V8.10838C6.58587 8.08849 6.57797 8.06941 6.5639 8.05534C6.54984 8.04128 6.53076 8.03338 6.51087 8.03338H5.74662V6.64588C5.74662 6.62599 5.73872 6.60691 5.72465 6.59284C5.71059 6.57878 5.69151 6.57088 5.67162 6.57088H5.38774C5.36785 6.57088 5.34878 6.57878 5.33471 6.59284C5.32065 6.60691 5.31274 6.62599 5.31274 6.64588V8.39075C5.31274 8.41064 5.32065 8.42972 5.33471 8.44379C5.34878 8.45785 5.36785 8.46575 5.38774 8.46575H6.51275L6.51087 8.46838Z" fill="#06C755"/>
<path d="M7.18739 6.56938H6.90389C6.86164 6.56938 6.82739 6.60363 6.82739 6.64588V8.39188C6.82739 8.43413 6.86164 8.46838 6.90389 8.46838H7.18739C7.22964 8.46838 7.26389 8.43413 7.26389 8.39188V6.64588C7.26389 6.60363 7.22964 6.56938 7.18739 6.56938Z" fill="#06C755"/>
<path d="M9.11897 6.56937H8.8351C8.81521 6.56937 8.79613 6.57727 8.78206 6.59133C8.768 6.6054 8.7601 6.62448 8.7601 6.64437V7.68162L7.96135 6.60274C7.95966 6.5999 7.95764 6.59726 7.95535 6.59487L7.95085 6.58999L7.94672 6.58662V6.58474L7.9426 6.58212H7.94035L7.93622 6.57987H7.9336L7.9291 6.57799H7.92685H7.92197H7.9126H7.9081H7.90472H7.9006H7.6126C7.59271 6.57799 7.57363 6.58589 7.55957 6.59996C7.5455 6.61402 7.5376 6.6331 7.5376 6.65299V8.39337C7.5376 8.41326 7.5455 8.43233 7.55957 8.4464C7.57363 8.46047 7.59271 8.46837 7.6126 8.46837H7.89647C7.91636 8.46837 7.93544 8.46047 7.94951 8.4464C7.96357 8.43233 7.97147 8.41326 7.97147 8.39337V7.35537L8.77135 8.43537C8.77673 8.44292 8.78347 8.4494 8.79122 8.45449L8.7961 8.45749H8.79835L8.8021 8.45937H8.80585H8.8081H8.81335C8.81985 8.461 8.82652 8.46188 8.83322 8.46199H9.1156C9.13549 8.46199 9.15457 8.45409 9.16863 8.44002C9.1827 8.42596 9.1906 8.40688 9.1906 8.38699V6.64587C9.19101 6.62629 9.18375 6.60733 9.17036 6.59303C9.15698 6.57874 9.13854 6.57024 9.11897 6.56937Z" fill="#06C755"/>
</svg>
