<svg width="16" height="16" viewBox="0 0 16 16" fill="none" xmlns="http://www.w3.org/2000/svg">
<path fillRule="evenodd" clipRule="evenodd" d="M8.00001 2C4.62002 2 2 4.47584 2 7.82001C2 9.56923 2.71688 11.0808 3.88434 12.1248C3.98234 12.2125 4.0415 12.3354 4.04552 12.4669L4.0782 13.5342C4.08864 13.8746 4.44029 14.0961 4.75181 13.9586L5.94273 13.4329C6.04368 13.3884 6.15681 13.3801 6.26319 13.4094C6.81045 13.5599 7.39291 13.64 8.00001 13.64C11.38 13.64 14 11.1642 14 7.82001C14 4.47584 11.38 2 8.00001 2Z" fill="url(#paint0_radial_3469_37059)" stroke="white"/>
<path fillRule="evenodd" clipRule="evenodd" d="M4.39715 9.52203L6.15965 6.72579C6.44001 6.28095 7.04037 6.17019 7.46103 6.48567L8.86284 7.53702C8.99145 7.6335 9.16842 7.63299 9.29649 7.53577L11.1897 6.09895C11.4424 5.90719 11.7722 6.20959 11.6031 6.47794L9.84064 9.27421C9.56026 9.71903 8.95989 9.82981 8.53926 9.51431L7.13742 8.46293C7.00881 8.36647 6.83183 8.36699 6.70377 8.46418L4.81055 9.901C4.55787 10.0928 4.22801 9.79038 4.39715 9.52203Z" fill="white"/>
<defs>
<radialGradient id="paint0_radial_3469_37059" cx="0" cy="0" r="1" gradientUnits="userSpaceOnUse" gradientTransform="translate(4.30969 13.9358) scale(13.0752)">
<stop stop-color="#0099FF"/>
<stop offset="0.609754" stop-color="#A033FF"/>
<stop offset="0.934823" stop-color="#FF5280"/>
<stop offset="1" stop-color="#FF7061"/>
</radialGradient>
</defs>
</svg>
