<svg width="20" height="23" viewBox="0 0 20 23" fill="none" xmlns="http://www.w3.org/2000/svg">
<path d="M14.7429 23H9.25714C5.22514 23 4 21.6288 4 17.1163V6.88372C4 2.37116 5.22514 1 9.25714 1H14.7429C18.7749 1 20 2.37116 20 6.88372V17.1163C20 21.6288 18.7749 23 14.7429 23ZM9.25714 2.53488C5.984 2.53488 5.37143 3.2307 5.37143 6.88372V17.1163C5.37143 20.7693 5.984 21.4651 9.25714 21.4651H14.7429C18.016 21.4651 18.6286 20.7693 18.6286 17.1163V6.88372C18.6286 3.2307 18.016 2.53488 14.7429 2.53488H9.25714Z" fill="#1A1A1A"/>
<path d="M14 6.25H10C9.59 6.25 9.25 5.91 9.25 5.5C9.25 5.09 9.59 4.75 10 4.75H14C14.41 4.75 14.75 5.09 14.75 5.5C14.75 5.91 14.41 6.25 14 6.25Z" fill="#1A1A1A"/>
<path d="M12 19.8598C10.73 19.8598 9.69995 18.8298 9.69995 17.5598C9.69995 16.2898 10.73 15.2598 12 15.2598C13.27 15.2598 14.3 16.2898 14.3 17.5598C14.3 18.8298 13.27 19.8598 12 19.8598ZM12 16.7498C11.56 16.7498 11.2 17.1098 11.2 17.5498C11.2 17.9898 11.56 18.3498 12 18.3498C12.44 18.3498 12.8 17.9898 12.8 17.5498C12.8 17.1098 12.44 16.7498 12 16.7498Z" fill="#1A1A1A"/>
</svg>
