<svg width="120" height="120" viewBox="0 0 120 120" fill="none" xmlns="http://www.w3.org/2000/svg">
<g opacity="0.1">
<path d="M96.7002 72.45L91.7002 64.15C90.6502 62.3 89.7002 58.8 89.7002 56.75V44.1C89.7002 32.35 82.8002 22.2 72.8502 17.45C70.2502 12.85 65.4502 10 59.9502 10C54.5002 10 49.6002 12.95 47.0002 17.6C37.2502 22.45 30.5002 32.5 30.5002 44.1V56.75C30.5002 58.8 29.5502 62.3 28.5002 64.1L23.4502 72.45C21.4502 75.8 21.0002 79.5 22.2502 82.9C23.4502 86.25 26.3002 88.85 30.0002 90.1C39.7002 93.4 49.9002 95 60.1002 95C70.3002 95 80.5002 93.4 90.2002 90.15C93.7002 89 96.4002 86.35 97.7002 82.9C99.0002 79.45 98.6502 75.65 96.7002 72.45Z" fill="#1677FF"/>
<path d="M96.7002 72.45L91.7002 64.15C90.6502 62.3 89.7002 58.8 89.7002 56.75V44.1C89.7002 32.35 82.8002 22.2 72.8502 17.45C70.2502 12.85 65.4502 10 59.9502 10C54.5002 10 49.6002 12.95 47.0002 17.6C37.2502 22.45 30.5002 32.5 30.5002 44.1V56.75C30.5002 58.8 29.5502 62.3 28.5002 64.1L23.4502 72.45C21.4502 75.8 21.0002 79.5 22.2502 82.9C23.4502 86.25 26.3002 88.85 30.0002 90.1C39.7002 93.4 49.9002 95 60.1002 95C70.3002 95 80.5002 93.4 90.2002 90.15C93.7002 89 96.4002 86.35 97.7002 82.9C99.0002 79.45 98.6502 75.65 96.7002 72.45Z" fill="black" fillOpacity="0.2"/>
<path d="M74.1499 100.05C72.0499 105.85 66.4999 110 59.9999 110C56.0499 110 52.1499 108.4 49.3999 105.55C47.7999 104.05 46.5999 102.05 45.8999 100C46.5499 100.1 47.1999 100.15 47.8999 100.25C49.0499 100.4 50.2499 100.55 51.4499 100.65C54.2999 100.9 57.1999 101.05 60.0999 101.05C62.9499 101.05 65.7999 100.9 68.5999 100.65C69.6499 100.55 70.6999 100.5 71.6999 100.35C72.4999 100.25 73.2999 100.15 74.1499 100.05Z" fill="#1677FF"/>
<path d="M74.1499 100.05C72.0499 105.85 66.4999 110 59.9999 110C56.0499 110 52.1499 108.4 49.3999 105.55C47.7999 104.05 46.5999 102.05 45.8999 100C46.5499 100.1 47.1999 100.15 47.8999 100.25C49.0499 100.4 50.2499 100.55 51.4499 100.65C54.2999 100.9 57.1999 101.05 60.0999 101.05C62.9499 101.05 65.7999 100.9 68.5999 100.65C69.6499 100.55 70.6999 100.5 71.6999 100.35C72.4999 100.25 73.2999 100.15 74.1499 100.05Z" fill="black" fillOpacity="0.2"/>
</g>
</svg>
