<svg width="120" height="120" viewBox="0 0 120 120" fill="none" xmlns="http://www.w3.org/2000/svg">
<path d="M78.9 10H41.1C22.2 10 17.5 15.05 17.5 35.2V91.5C17.5 104.8 24.8 107.95 33.65 98.45L33.7 98.4C37.8 94.05 44.05 94.4 47.6 99.15L52.65 105.9C56.7 111.25 63.25 111.25 67.3 105.9L72.35 99.15C75.95 94.35 82.2 94 86.3 98.4C95.2 107.9 102.45 104.75 102.45 91.45V35.2C102.5 15.05 97.8 10 78.9 10ZM45 35C47.75 35 50 37.25 50 40C50 42.75 47.8 45 45 45C42.2 45 40 42.75 40 40C40 37.25 42.2 35 45 35ZM75 70C72.2 70 70 67.75 70 65C70 62.25 72.25 60 75 60C77.75 60 80 62.25 80 65C80 67.75 77.8 70 75 70ZM79.5 37.95L45.85 71.6C45.1 72.35 44.15 72.7 43.2 72.7C42.25 72.7 41.3 72.35 40.55 71.6C39.1 70.15 39.1 67.75 40.55 66.3L74.2 32.65C75.65 31.2 78.05 31.2 79.5 32.65C80.95 34.1 80.95 36.5 79.5 37.95Z" fill="#E7EFFA"/>
<path d="M78.9 10H41.1C22.2 10 17.5 15.05 17.5 35.2V91.5C17.5 104.8 24.8 107.95 33.65 98.45L33.7 98.4C37.8 94.05 44.05 94.4 47.6 99.15L52.65 105.9C56.7 111.25 63.25 111.25 67.3 105.9L72.35 99.15C75.95 94.35 82.2 94 86.3 98.4C95.2 107.9 102.45 104.75 102.45 91.45V35.2C102.5 15.05 97.8 10 78.9 10ZM45 35C47.75 35 50 37.25 50 40C50 42.75 47.8 45 45 45C42.2 45 40 42.75 40 40C40 37.25 42.2 35 45 35ZM75 70C72.2 70 70 67.75 70 65C70 62.25 72.25 60 75 60C77.75 60 80 62.25 80 65C80 67.75 77.8 70 75 70ZM79.5 37.95L45.85 71.6C45.1 72.35 44.15 72.7 43.2 72.7C42.25 72.7 41.3 72.35 40.55 71.6C39.1 70.15 39.1 67.75 40.55 66.3L74.2 32.65C75.65 31.2 78.05 31.2 79.5 32.65C80.95 34.1 80.95 36.5 79.5 37.95Z" fill="#E7EFFA" fillOpacity="0.2"/>
</svg>
