<svg width="16" height="16" viewBox="0 0 16 16" fill="none" xmlns="http://www.w3.org/2000/svg">
<path d="M12.1278 2.99322H3.87207C3.38666 2.99322 2.99316 3.38672 2.99316 3.87212V12.1279C2.99316 12.6133 3.38666 13.0068 3.87207 13.0068H12.1278C12.6132 13.0068 13.0067 12.6133 13.0067 12.1279V3.87212C13.0067 3.38672 12.6132 2.99322 12.1278 2.99322Z" fill="url(#paint0_linear_3469_37007)"/>
<mask id="mask0_3469_37007" style="mask-type:luminance" maskUnits="userSpaceOnUse" x="3" y="3" width="10" height="10">
<path d="M13 3H3V13H13V3Z" fill="white"/>
</mask>
<g mask="url(#mask0_3469_37007)">
<path d="M10.2373 8.62711C10.0678 8.62711 9.93222 8.49152 9.93222 8.32203C9.93222 8.15254 10.0678 8.01694 10.2373 8.01694C10.4068 8.01694 10.5424 8.15254 10.5424 8.32203C10.5424 8.49152 10.4068 8.62711 10.2373 8.62711ZM8.74578 8.62711C8.57629 8.62711 8.44069 8.49152 8.44069 8.32203C8.44069 8.15254 8.57629 8.01694 8.74578 8.01694C8.91527 8.01694 9.05086 8.15254 9.05086 8.32203C9.05086 8.49152 8.91527 8.62711 8.74578 8.62711ZM10.9661 10.3559C11.4407 10.0169 11.7458 9.50847 11.7458 8.9322C11.7458 7.8983 10.7458 7.05084 9.49154 7.05084C8.2373 7.05084 7.2373 7.8983 7.2373 8.9322C7.2373 9.9661 8.2373 10.8136 9.49154 10.8136C9.74578 10.8136 10 10.7797 10.2204 10.7119C10.2373 10.7119 10.2712 10.6949 10.2882 10.6949C10.339 10.6949 10.3729 10.7119 10.4068 10.7288L10.8983 11.0169C10.9153 11.0169 10.9322 11.0339 10.9492 11.0339C10.9831 11.0339 11.017 11 11.017 10.9661C11.017 10.9491 11.017 10.9322 11 10.9152C11 10.8983 10.9322 10.678 10.8983 10.5424C10.8983 10.5254 10.8983 10.5085 10.8983 10.4915C10.8983 10.4237 10.9322 10.3729 10.9661 10.3559Z" fill="white"/>
</g>
<mask id="mask1_3469_37007" style="mask-type:luminance" maskUnits="userSpaceOnUse" x="3" y="3" width="10" height="10">
<path d="M13 3H3V13H13V3Z" fill="white"/>
</mask>
<g mask="url(#mask1_3469_37007)">
<path d="M7.86446 6.88135C7.66107 6.88135 7.50853 6.71186 7.50853 6.52542C7.50853 6.32203 7.67802 6.16949 7.86446 6.16949C8.0509 6.16949 8.22039 6.33898 8.22039 6.52542C8.23734 6.71186 8.06785 6.88135 7.86446 6.88135ZM6.06785 6.88135C5.86446 6.88135 5.71192 6.71186 5.71192 6.52542C5.71192 6.32203 5.88141 6.16949 6.06785 6.16949C6.27124 6.16949 6.42378 6.33898 6.42378 6.52542C6.42378 6.71186 6.27124 6.88135 6.06785 6.88135ZM6.96616 4.98305C5.47463 4.98305 4.27124 5.98305 4.27124 7.23728C4.27124 7.91525 4.62717 8.52542 5.20344 8.9322C5.25429 8.9661 5.27124 9.01695 5.27124 9.08474C5.27124 9.10169 5.27124 9.11864 5.25429 9.13559C5.20344 9.30508 5.13565 9.57627 5.13565 9.59322C5.13565 9.61017 5.1187 9.64406 5.1187 9.66101C5.1187 9.71186 5.1526 9.74576 5.20344 9.74576C5.22039 9.74576 5.23734 9.74576 5.25429 9.72881L5.84751 9.38983C5.89836 9.35593 5.93226 9.35593 5.9831 9.35593C6.017 9.35593 6.03395 9.35593 6.06785 9.37288C6.33904 9.45762 6.64412 9.49152 6.94921 9.49152C7.00005 9.49152 7.0509 9.49152 7.10175 9.49152C7.0509 9.32203 7.017 9.13559 7.017 8.9322C7.017 7.79661 8.1187 6.88135 9.47463 6.88135C9.52548 6.88135 9.57632 6.88135 9.62717 6.88135C9.44073 5.81356 8.32209 4.98305 6.96616 4.98305Z" fill="white"/>
</g>
<defs>
<linearGradient id="paint0_linear_3469_37007" x1="7.81374" y1="13.0276" x2="7.85512" y2="3.22064" gradientUnits="userSpaceOnUse">
<stop stop-color="#06C261"/>
<stop offset="1" stop-color="#02E26F"/>
</linearGradient>
</defs>
</svg>
