<svg width="16" height="16" viewBox="0 0 16 16" fill="none" xmlns="http://www.w3.org/2000/svg">
<path d="M2.25494 7.94785C2.25466 8.95943 2.51897 9.94716 3.02156 10.8178L2.20687 13.7923L5.25098 12.9942C6.09295 13.4525 7.0363 13.6927 7.99494 13.6928H7.99746C11.1621 13.6928 13.7382 11.1176 13.7396 7.95238C13.7402 6.41861 13.1434 4.97635 12.0592 3.89128C10.9751 2.80629 9.53337 2.20846 7.99722 2.20776C4.8322 2.20776 2.25624 4.78278 2.25494 7.94785Z" fill="url(#paint0_linear_3469_37046)"/>
<path d="M2.04993 7.94598C2.04961 8.99396 2.32339 10.017 2.84391 10.9188L2 14L5.15326 13.1732C6.02209 13.6469 7.0003 13.8967 7.99568 13.8971H7.99825C11.2764 13.8971 13.9451 11.2293 13.9465 7.95074C13.947 6.36186 13.3288 4.86776 12.2058 3.74381C11.0827 2.62 9.58942 2.00065 7.99825 2C4.7195 2 2.05124 4.66742 2.04993 7.94598ZM3.92782 10.7635L3.81008 10.5766C3.31514 9.78961 3.0539 8.88019 3.05428 7.94636C3.0553 5.2213 5.27305 3.00425 8.00012 3.00425C9.32076 3.00481 10.5619 3.51963 11.4954 4.45369C12.4289 5.38785 12.9425 6.62963 12.9422 7.95037C12.941 10.6754 10.7232 12.8928 7.99825 12.8928H7.99629C7.10903 12.8923 6.23885 12.654 5.47997 12.2037L5.29937 12.0966L3.42816 12.5872L3.92782 10.7635Z" fill="url(#paint1_linear_3469_37046)"/>
<path d="M6.51157 5.46018C6.40022 5.21272 6.28304 5.20772 6.17716 5.20338C6.09045 5.19965 5.99134 5.19993 5.89231 5.19993C5.79319 5.19993 5.63215 5.23721 5.49602 5.38585C5.35976 5.53462 4.97579 5.89413 4.97579 6.62534C4.97579 7.35655 5.50839 8.06326 5.58264 8.16251C5.65697 8.26159 6.61083 9.81015 8.12149 10.4059C9.37699 10.901 9.63249 10.8025 9.90497 10.7777C10.1775 10.7529 10.7843 10.4183 10.9081 10.0712C11.032 9.72419 11.032 9.42674 10.9949 9.36458C10.9578 9.30266 10.8586 9.26546 10.71 9.19117C10.5614 9.11688 9.83063 8.75727 9.69442 8.70767C9.55815 8.65811 9.45908 8.63337 9.35996 8.78219C9.26084 8.93078 8.97623 9.26546 8.88948 9.36458C8.80282 9.46393 8.71606 9.4763 8.56748 9.40196C8.41876 9.32739 7.9401 9.17064 7.37223 8.66436C6.93039 8.27041 6.63211 7.78391 6.5454 7.6351C6.45869 7.48651 6.53611 7.40597 6.61064 7.33191C6.67742 7.26532 6.75932 7.15836 6.8337 7.07161C6.90781 6.98481 6.93254 6.92288 6.9821 6.82376C7.03171 6.72455 7.00688 6.63775 6.96978 6.56341C6.93254 6.48907 6.64373 5.75404 6.51157 5.46018Z" fill="white"/>
<defs>
<linearGradient id="paint0_linear_3469_37046" x1="599.324" y1="1202" x2="599.324" y2="2" gradientUnits="userSpaceOnUse">
<stop stop-color="#1FAF38"/>
<stop offset="1" stop-color="#60D669"/>
</linearGradient>
<linearGradient id="paint1_linear_3469_37046" x1="599.324" y1="1202" x2="599.324" y2="2" gradientUnits="userSpaceOnUse">
<stop stop-color="#F9F9F9"/>
<stop offset="1" stop-color="white"/>
</linearGradient>
</defs>
</svg>
