<svg width="16" height="16" viewBox="0 0 16 16" fill="none" xmlns="http://www.w3.org/2000/svg">
<path d="M14.6667 4V11.3333C14.6667 11.687 14.5262 12.0261 14.2761 12.2761C14.0261 12.5262 13.687 12.6667 13.3333 12.6667C12.22 12.6667 10.04 12.6667 9.08667 13.3333H14.6667C14.8435 13.3333 15.0131 13.2631 15.1381 13.1381C15.2631 13.013 15.3333 12.8435 15.3333 12.6667V4.66667C15.3333 4.48986 15.2631 4.32029 15.1381 4.19526C15.0131 4.07024 14.8435 4 14.6667 4Z" fill="#1677FF"/>
<path d="M1.33335 11.3333V4C1.15654 4 0.986973 4.07024 0.861949 4.19526C0.736925 4.32029 0.666687 4.48986 0.666687 4.66667V12.6667C0.666687 12.8435 0.736925 13.013 0.861949 13.1381C0.986973 13.2631 1.15654 13.3333 1.33335 13.3333H6.91335C5.96669 12.6667 3.78002 12.6667 2.66669 12.6667C2.31306 12.6667 1.97393 12.5262 1.72388 12.2761C1.47383 12.0261 1.33335 11.687 1.33335 11.3333Z" fill="#1677FF"/>
<path d="M2.66667 2.66666C2.48986 2.66666 2.32029 2.73689 2.19526 2.86192C2.07024 2.98694 2 3.15651 2 3.33332V11.3333C2 11.5101 2.07024 11.6797 2.19526 11.8047C2.32029 11.9298 2.48986 12 2.66667 12C4.63667 12 6.79667 12.1 7.66667 13.1233V3.57332C6.47667 2.75666 4.49333 2.66666 2.66667 2.66666Z" fill="#1677FF"/>
<path d="M14 11.3333V3.33332C14 3.15651 13.9298 2.98694 13.8048 2.86192C13.6798 2.73689 13.5102 2.66666 13.3334 2.66666C11.5067 2.66666 9.52337 2.75666 8.33337 3.57332V13.1233C9.20337 12.1 11.3634 12 13.3334 12C13.5102 12 13.6798 11.9298 13.8048 11.8047C13.9298 11.6797 14 11.5101 14 11.3333Z" fill="#1677FF"/>
</svg>
