<svg width="16" height="16" viewBox="0 0 16 16" fill="none" xmlns="http://www.w3.org/2000/svg">
<path fillRule="evenodd" clipRule="evenodd" d="M1.5 1.5C1.22386 1.5 1 1.72386 1 2C1 2.27614 1.22386 2.5 1.5 2.5H2V9.5C2 10.6046 2.89543 11.5 4 11.5H4.80629L4.02566 13.8419C3.93833 14.1039 4.07991 14.387 4.34189 14.4743C4.60386 14.5617 4.88702 14.4201 4.97434 14.1581L5.19371 13.5H10.8063L11.0257 14.1581C11.113 14.4201 11.3961 14.5617 11.6581 14.4743C11.9201 14.387 12.0617 14.1039 11.9743 13.8419L11.1937 11.5H12C13.1046 11.5 14 10.6046 14 9.5V2.5H14.5C14.7761 2.5 15 2.27614 15 2C15 1.72386 14.7761 1.5 14.5 1.5H1.5ZM5.86038 11.5H10.1396L10.473 12.5H5.52705L5.86038 11.5ZM11.2504 5.50312C11.4894 5.36484 11.5711 5.05898 11.4328 4.81995C11.2945 4.58092 10.9887 4.49924 10.7496 4.63751C9.83848 5.16459 9.03444 5.8558 8.37781 6.67076L7.35355 5.6465C7.15829 5.45124 6.84171 5.45124 6.64645 5.6465L4.64645 7.6465C4.45118 7.84176 4.45118 8.15835 4.64645 8.35361C4.84171 8.54887 5.15829 8.54887 5.35355 8.35361L7 6.70716L8.07818 7.78534C8.18283 7.88999 8.32846 7.9429 8.47588 7.92983C8.62329 7.91676 8.75735 7.83906 8.84196 7.71764C9.47131 6.81445 10.2943 6.05618 11.2504 5.50312Z" fill="white"/>
</svg>
