<svg width="12" height="10" viewBox="0 0 12 10" fill="none" xmlns="http://www.w3.org/2000/svg">
<path d="M9 0H3C1.2 0 0 0.882353 0 2.94118V7.05882C0 9.11765 1.2 10 3 10H9C10.8 10 12 9.11765 12 7.05882V2.94118C12 0.882353 10.8 0 9 0ZM9.282 3.58235L7.404 5.05294C7.008 5.36471 6.504 5.51765 6 5.51765C5.496 5.51765 4.986 5.36471 4.596 5.05294L2.718 3.58235C2.526 3.42941 2.496 3.14706 2.646 2.95882C2.802 2.77059 3.084 2.73529 3.276 2.88823L5.154 4.35882C5.61 4.71765 6.384 4.71765 6.84 4.35882L8.718 2.88823C8.91 2.73529 9.198 2.76471 9.348 2.95882C9.504 3.14706 9.474 3.42941 9.282 3.58235Z" fill="#0082C6"/>
</svg>
