<svg width="48" height="48" viewBox="0 0 48 48" fill="none" xmlns="http://www.w3.org/2000/svg">
<g clip-path="url(#clip0_3_497)">
<path d="M41.4545 0H6.54545C2.9305 0 0 2.9305 0 6.54545V41.4545C0 45.0695 2.9305 48 6.54545 48H41.4545C45.0695 48 48 45.0695 48 41.4545V6.54545C48 2.9305 45.0695 0 41.4545 0Z" fill="#39CD00"/>
<path d="M39 22.3636C38.9787 22.6684 38.9395 22.9716 38.8827 23.2718C38.693 24.4211 38.3044 25.5286 37.7345 26.5445C37.4618 27.03 36.15 28.8736 35.7491 29.3591C33.5318 32.0291 29.8173 35.1109 23.61 38.1082C23.479 38.1714 23.3336 38.1986 23.1886 38.187C23.0437 38.1754 22.9044 38.1253 22.7852 38.042C22.6661 37.9586 22.5712 37.845 22.5106 37.7128C22.4499 37.5807 22.4255 37.4347 22.44 37.29L22.7536 34.4727C22.7774 34.2572 22.7146 34.0411 22.5791 33.8718C22.4436 33.7025 22.2464 33.594 22.0309 33.57C19.9659 33.3634 17.9544 32.7899 16.0909 31.8764C11.8364 29.7736 9 26.0182 9 21.7391C9 15.15 15.7145 9.81818 24 9.81818C28.1618 9.81818 31.9255 11.1818 34.6364 13.3445C37.1755 15.3764 38.8009 18.1336 38.9755 21.1936C39.0046 21.5829 39.0128 21.9735 39 22.3636Z" fill="white"/>
<path d="M19.8654 24.3791C19.938 24.45 19.9955 24.5349 20.0344 24.6287C20.0733 24.7224 20.0928 24.8231 20.0918 24.9245C20.0922 25.0254 20.0726 25.1254 20.0343 25.2186C19.9959 25.3119 19.9395 25.3967 19.8683 25.4682C19.7971 25.5397 19.7125 25.5963 19.6194 25.635C19.5262 25.6737 19.4263 25.6936 19.3254 25.6936H16.2573C16.0535 25.6929 15.8583 25.6116 15.7142 25.4676C15.5702 25.3235 15.4889 25.1283 15.4882 24.9245V19.1291C15.4875 19.0276 15.5072 18.9271 15.5461 18.8334C15.5849 18.7397 15.6422 18.6548 15.7145 18.5836C15.8219 18.4759 15.9588 18.4026 16.108 18.373C16.2571 18.3434 16.4117 18.3588 16.552 18.4173C16.6924 18.4758 16.8122 18.5747 16.8961 18.7014C16.9801 18.8282 17.0245 18.977 17.0236 19.1291V24.1554H19.3254C19.4258 24.1547 19.5254 24.1741 19.6181 24.2125C19.7109 24.2509 19.795 24.3076 19.8654 24.3791Z" fill="#00C200"/>
<path d="M22.3636 18.9627V25.0909C22.3629 25.2498 22.2995 25.402 22.1871 25.5144C22.0747 25.6267 21.9226 25.6902 21.7636 25.6909H21.42C21.2609 25.6909 21.1083 25.6277 20.9957 25.5152C20.8832 25.4026 20.82 25.25 20.82 25.0909V18.9627C20.82 18.8839 20.8355 18.8059 20.8657 18.7331C20.8958 18.6603 20.94 18.5942 20.9957 18.5384C21.0515 18.4827 21.1176 18.4385 21.1904 18.4084C21.2632 18.3782 21.3412 18.3627 21.42 18.3627H21.7555C21.8348 18.362 21.9136 18.377 21.9872 18.4068C22.0607 18.4366 22.1277 18.4806 22.1842 18.5363C22.2407 18.5921 22.2857 18.6585 22.3165 18.7316C22.3473 18.8048 22.3633 18.8833 22.3636 18.9627Z" fill="#00C200"/>
<path d="M29.4872 19.1291V24.8918C29.4874 25.0991 29.4069 25.2983 29.2629 25.4474C29.1189 25.5965 28.9226 25.6838 28.7154 25.6909C28.5213 25.6878 28.3353 25.6119 28.1945 25.4782C28.1672 25.4563 27.1363 24.1145 26.2609 22.9854C25.6063 22.1427 25.0391 21.4063 25.0391 21.4063V24.9218C25.0396 25.0708 24.9966 25.2167 24.9155 25.3417C24.8344 25.4667 24.7186 25.5653 24.5823 25.6255C24.446 25.6857 24.2951 25.7048 24.1481 25.6806C24.0011 25.6564 23.8643 25.5898 23.7545 25.4891C23.6753 25.4173 23.6121 25.3298 23.5689 25.2321C23.5256 25.1343 23.5034 25.0286 23.5036 24.9218V19.1618C23.5011 18.9593 23.5763 18.7636 23.7138 18.6149C23.8513 18.4662 24.0406 18.376 24.2427 18.3627C24.3571 18.3608 24.4704 18.3843 24.5746 18.4315C24.6789 18.4786 24.7713 18.5483 24.8454 18.6354C24.8781 18.6736 26.4627 20.7354 27.3545 21.9082C27.7091 22.3663 27.9545 22.6882 27.9545 22.6882V19.1427C27.9559 18.9399 28.0371 18.7458 28.1806 18.6024C28.324 18.459 28.5181 18.3778 28.7209 18.3763C28.9218 18.3763 29.1147 18.4552 29.258 18.596C29.4013 18.7368 29.4837 18.9282 29.4872 19.1291Z" fill="#00C200"/>
<path d="M32.1818 22.7918V24.1554H34.4809C34.5856 24.1492 34.6904 24.1644 34.789 24.2002C34.8876 24.236 34.9778 24.2915 35.0541 24.3634C35.1304 24.4353 35.1912 24.522 35.2328 24.6183C35.2743 24.7146 35.2958 24.8183 35.2958 24.9232C35.2958 25.028 35.2743 25.1318 35.2328 25.228C35.1912 25.3243 35.1304 25.4111 35.0541 25.483C34.9778 25.5549 34.8876 25.6104 34.789 25.6462C34.6904 25.6819 34.5856 25.6971 34.4809 25.6909H31.4045C31.201 25.6902 31.0061 25.6088 30.8625 25.4647C30.7188 25.3205 30.6382 25.1253 30.6382 24.9218V19.1291C30.6389 18.9261 30.7199 18.7315 30.8634 18.588C31.007 18.4444 31.2015 18.3634 31.4045 18.3627H34.4727C34.5774 18.3565 34.6822 18.3717 34.7808 18.4075C34.8794 18.4432 34.9696 18.4988 35.0459 18.5707C35.1222 18.6426 35.183 18.7293 35.2246 18.8256C35.2662 18.9218 35.2876 19.0256 35.2876 19.1304C35.2876 19.2353 35.2662 19.3391 35.2246 19.4353C35.183 19.5316 35.1222 19.6183 35.0459 19.6902C34.9696 19.7621 34.8794 19.8177 34.7808 19.8534C34.6822 19.8892 34.5774 19.9044 34.4727 19.8982H32.1818V21.2618H34.4809C34.6842 21.2618 34.8791 21.3426 35.0228 21.4863C35.1665 21.63 35.2473 21.8249 35.2473 22.0282C35.2473 22.2314 35.1665 22.4264 35.0228 22.5701C34.8791 22.7138 34.6842 22.7945 34.4809 22.7945L32.1818 22.7918Z" fill="#00C200"/>
</g>
<defs>
<clipPath id="clip0_3_497">
<rect width="48" height="48" fill="white"/>
</clipPath>
</defs>
</svg>
