<svg width="14" height="14" viewBox="0 0 14 14" fill="none" xmlns="http://www.w3.org/2000/svg">
<path fillRule="evenodd" clipRule="evenodd" d="M7.00001 1C3.62002 1 1 3.47584 1 6.82001C1 8.56923 1.71688 10.0808 2.88434 11.1248C2.98234 11.2125 3.0415 11.3354 3.04552 11.4669L3.0782 12.5342C3.08864 12.8746 3.44029 13.0961 3.75181 12.9586L4.94273 12.4329C5.04368 12.3884 5.15681 12.3801 5.26319 12.4094C5.81045 12.5599 6.39291 12.64 7.00001 12.64C10.38 12.64 13 10.1642 13 6.82001C13 3.47584 10.38 1 7.00001 1Z" fill="url(#paint0_radial_3302_5172)" stroke="white"/>
<path fillRule="evenodd" clipRule="evenodd" d="M3.39739 8.52209L5.1599 5.72585C5.44025 5.28101 6.04062 5.17025 6.46128 5.48573L7.86308 6.53709C7.9917 6.63357 8.16866 6.63305 8.29674 6.53583L10.1899 5.09901C10.4426 4.90725 10.7725 5.20965 10.6034 5.478L8.84088 8.27427C8.5605 8.71909 7.96014 8.82987 7.5395 8.51437L6.13766 7.46299C6.00906 7.36653 5.83208 7.36705 5.70401 7.46424L3.8108 8.90107C3.55811 9.09281 3.22825 8.79044 3.39739 8.52209Z" fill="white"/>
<defs>
<radialGradient id="paint0_radial_3302_5172" cx="0" cy="0" r="1" gradientUnits="userSpaceOnUse" gradientTransform="translate(3.30969 12.9358) scale(13.0752)">
<stop stop-color="#0099FF"/>
<stop offset="0.609754" stop-color="#A033FF"/>
<stop offset="0.934823" stop-color="#FF5280"/>
<stop offset="1" stop-color="#FF7061"/>
</radialGradient>
</defs>
</svg>
