<svg width="16" height="17" viewBox="0 0 16 17" fill="none" xmlns="http://www.w3.org/2000/svg">
<g clip-path="url(#clip0_3_845)">
<path d="M8 0.846191C3.58866 0.846191 0 4.43485 0 8.84619C0 13.2575 3.58866 16.8462 8 16.8462C12.4113 16.8462 16 13.2575 16 8.84619C16 4.43485 12.4113 0.846191 8 0.846191ZM10.4713 9.31754L7.138 12.6508C7.008 12.7808 6.83734 12.8462 6.66666 12.8462C6.496 12.8462 6.32531 12.7808 6.19531 12.6508C5.93466 12.3902 5.93466 11.9688 6.19531 11.7082L9.05734 8.84619L6.19534 5.98419C5.93469 5.72354 5.93469 5.30219 6.19534 5.04154C6.456 4.78088 6.87734 4.78088 7.138 5.04154L10.4713 8.37488C10.732 8.63554 10.732 9.05685 10.4713 9.31754Z" fill="white"/>
</g>
<defs>
<clipPath id="clip0_3_845">
<rect width="16" height="16" fill="white" transform="translate(0 0.846191)"/>
</clipPath>
</defs>
</svg>
