<svg width="120" height="120" viewBox="0 0 120 120" fill="none" xmlns="http://www.w3.org/2000/svg">
<g opacity="0.1">
<path d="M85 10H35C21.2 10 10 21.15 10 34.9V64.8V69.8C10 83.55 21.2 94.7 35 94.7H42.5C43.85 94.7 45.65 95.6 46.5 96.7L54 106.65C57.3 111.05 62.7 111.05 66 106.65L73.5 96.7C74.45 95.45 75.95 94.7 77.5 94.7H85C98.8 94.7 110 83.55 110 69.8V34.9C110 21.15 98.8 10 85 10ZM40 60C37.2 60 35 57.75 35 55C35 52.25 37.25 50 40 50C42.75 50 45 52.25 45 55C45 57.75 42.8 60 40 60ZM60 60C57.2 60 55 57.75 55 55C55 52.25 57.25 50 60 50C62.75 50 65 52.25 65 55C65 57.75 62.8 60 60 60ZM80 60C77.2 60 75 57.75 75 55C75 52.25 77.25 50 80 50C82.75 50 85 52.25 85 55C85 57.75 82.8 60 80 60Z" fill="#1677FF"/>
<path d="M85 10H35C21.2 10 10 21.15 10 34.9V64.8V69.8C10 83.55 21.2 94.7 35 94.7H42.5C43.85 94.7 45.65 95.6 46.5 96.7L54 106.65C57.3 111.05 62.7 111.05 66 106.65L73.5 96.7C74.45 95.45 75.95 94.7 77.5 94.7H85C98.8 94.7 110 83.55 110 69.8V34.9C110 21.15 98.8 10 85 10ZM40 60C37.2 60 35 57.75 35 55C35 52.25 37.25 50 40 50C42.75 50 45 52.25 45 55C45 57.75 42.8 60 40 60ZM60 60C57.2 60 55 57.75 55 55C55 52.25 57.25 50 60 50C62.75 50 65 52.25 65 55C65 57.75 62.8 60 60 60ZM80 60C77.2 60 75 57.75 75 55C75 52.25 77.25 50 80 50C82.75 50 85 52.25 85 55C85 57.75 82.8 60 80 60Z" fill="black" fillOpacity="0.2"/>
</g>
</svg>
