<svg width="120" height="120" viewBox="0 0 120 120" fill="none" xmlns="http://www.w3.org/2000/svg">
<g opacity="0.1">
<path d="M90 10H30C21.7 10 15 16.65 15 24.85V79.4C15 87.6 21.7 94.3 30 94.3H33.8C37.75 94.3 41.6 95.85 44.4 98.65L52.95 107.1C56.85 110.95 63.15 110.95 67.05 107.1L75.6 98.65C78.4 95.85 82.25 94.3 86.2 94.3H90C98.3 94.3 105 87.6 105 79.4V24.85C105 16.65 98.3 10 90 10ZM60 27.75C65.4 27.75 69.75 32.15 69.75 37.5C69.75 42.8 65.55 47.05 60.35 47.25C60.15 47.25 59.85 47.25 59.6 47.25C54.35 47.05 50.2 42.8 50.2 37.5C50.25 32.15 54.6 27.75 60 27.75ZM73.75 73.45C66.2 78.5 53.8 78.5 46.25 73.45C39.6 69.05 39.6 61.75 46.25 57.3C53.85 52.25 66.25 52.25 73.75 57.3C80.4 61.75 80.4 69 73.75 73.45Z" fill="#1677FF"/>
<path d="M90 10H30C21.7 10 15 16.65 15 24.85V79.4C15 87.6 21.7 94.3 30 94.3H33.8C37.75 94.3 41.6 95.85 44.4 98.65L52.95 107.1C56.85 110.95 63.15 110.95 67.05 107.1L75.6 98.65C78.4 95.85 82.25 94.3 86.2 94.3H90C98.3 94.3 105 87.6 105 79.4V24.85C105 16.65 98.3 10 90 10ZM60 27.75C65.4 27.75 69.75 32.15 69.75 37.5C69.75 42.8 65.55 47.05 60.35 47.25C60.15 47.25 59.85 47.25 59.6 47.25C54.35 47.05 50.2 42.8 50.2 37.5C50.25 32.15 54.6 27.75 60 27.75ZM73.75 73.45C66.2 78.5 53.8 78.5 46.25 73.45C39.6 69.05 39.6 61.75 46.25 57.3C53.85 52.25 66.25 52.25 73.75 57.3C80.4 61.75 80.4 69 73.75 73.45Z" fill="black" fillOpacity="0.2"/>
</g>
</svg>
