<svg width="48" height="48" viewBox="0 0 48 48" fill="none" xmlns="http://www.w3.org/2000/svg">
<path d="M40.8 0H7.2C3.22355 0 0 3.22355 0 7.2V40.8C0 44.7765 3.22355 48 7.2 48H40.8C44.7765 48 48 44.7765 48 40.8V7.2C48 3.22355 44.7765 0 40.8 0Z" fill="#00C70A"/>
<path d="M37.6875 34.5938C39.8438 33 41.25 30.6562 41.25 28.0312C41.25 23.25 36.5625 19.4062 30.8438 19.4062C25.125 19.4062 20.5312 23.25 20.5312 28.0312C20.5312 32.8125 25.125 36.6562 30.8438 36.6562C32.0625 36.6562 33.1875 36.4688 34.2188 36.1875C34.5938 36.0938 34.9688 36.1875 35.0625 36.2812L37.4062 37.5938C37.6875 37.7812 37.9688 37.5938 37.875 37.2188L37.3125 35.1562C37.3125 34.875 37.5 34.6875 37.6875 34.5938ZM27.375 26.625C27.1668 26.6801 26.9488 26.6867 26.7376 26.6443C26.5265 26.6018 26.3279 26.5114 26.1573 26.38C25.9866 26.2487 25.8484 26.0799 25.7533 25.8867C25.6582 25.6935 25.6087 25.481 25.6087 25.2656C25.6087 25.0503 25.6582 24.8378 25.7533 24.6446C25.8484 24.4513 25.9866 24.2826 26.1573 24.1512C26.3279 24.0199 26.5265 23.9295 26.7376 23.887C26.9488 23.8445 27.1668 23.8511 27.375 23.9062C27.6749 23.9857 27.9401 24.1621 28.1294 24.408C28.3186 24.6538 28.4212 24.9554 28.4212 25.2656C28.4212 25.5759 28.3186 25.8774 28.1294 26.1233C27.9401 26.3692 27.6749 26.5456 27.375 26.625ZM34.3125 26.625C34.1043 26.6801 33.8863 26.6867 33.6751 26.6443C33.464 26.6018 33.2654 26.5114 33.0948 26.38C32.9241 26.2487 32.7859 26.0799 32.6908 25.8867C32.5957 25.6935 32.5462 25.481 32.5462 25.2656C32.5462 25.0503 32.5957 24.8378 32.6908 24.6446C32.7859 24.4513 32.9241 24.2826 33.0948 24.1512C33.2654 24.0199 33.464 23.9295 33.6751 23.887C33.8863 23.8445 34.1043 23.8511 34.3125 23.9062C34.6124 23.9857 34.8776 24.1621 35.0669 24.408C35.2561 24.6538 35.3587 24.9554 35.3587 25.2656C35.3587 25.5759 35.2561 25.8774 35.0669 26.1233C34.8776 26.3692 34.6124 26.5456 34.3125 26.625Z" fill="white"/>
<path d="M19.2188 9.84375C12.375 9.84375 6.84375 14.5312 6.84375 20.25C6.84375 23.3438 8.4375 26.1562 11.0625 28.0312C11.3438 28.2188 11.5312 28.5 11.4375 28.9688L10.7812 31.2188C10.6875 31.6875 11.0625 31.875 11.3438 31.7812L14.1562 30.1875C14.4375 30 14.8125 29.9062 15.1875 30C17.625 30.75 19.6875 30.5625 19.9688 30.5625C17.7188 22.6875 25.5 18.1875 31.5 18.5625C30.5625 13.6875 25.4062 9.84375 19.2188 9.84375ZM15.0938 18.5625C14.8456 18.6222 14.5872 18.6249 14.3379 18.5703C14.0886 18.5158 13.8549 18.4054 13.6545 18.2474C13.454 18.0895 13.292 17.8882 13.1806 17.6586C13.0692 17.429 13.0113 17.1771 13.0113 16.9219C13.0113 16.6667 13.0692 16.4148 13.1806 16.1852C13.292 15.9556 13.454 15.7543 13.6545 15.5963C13.8549 15.4384 14.0886 15.328 14.3379 15.2734C14.5872 15.2188 14.8456 15.2215 15.0938 15.2812C15.4621 15.3699 15.7899 15.58 16.0243 15.8776C16.2588 16.1752 16.3863 16.543 16.3863 16.9219C16.3863 17.3007 16.2588 17.6686 16.0243 17.9662C15.7899 18.2638 15.4621 18.4738 15.0938 18.5625ZM23.4375 18.5625C23.1894 18.6222 22.931 18.6249 22.6817 18.5703C22.4324 18.5158 22.1987 18.4054 21.9982 18.2474C21.7978 18.0895 21.6357 17.8882 21.5243 17.6586C21.4129 17.429 21.355 17.1771 21.355 16.9219C21.355 16.6667 21.4129 16.4148 21.5243 16.1852C21.6357 15.9556 21.7978 15.7543 21.9982 15.5963C22.1987 15.4384 22.4324 15.328 22.6817 15.2734C22.931 15.2188 23.1894 15.2215 23.4375 15.2812C23.8058 15.3699 24.1336 15.58 24.3681 15.8776C24.6025 16.1752 24.73 16.543 24.73 16.9219C24.73 17.3007 24.6025 17.6686 24.3681 17.9662C24.1336 18.2638 23.8058 18.4738 23.4375 18.5625Z" fill="white"/>
</svg>
