<svg width="48" height="48" viewBox="0 0 48 48" fill="none" xmlns="http://www.w3.org/2000/svg">
<path d="M47.9962 35.8192C47.9962 36.0819 47.9881 36.6519 47.9723 37.0922C47.9337 38.1694 47.8483 39.5595 47.7192 40.1929C47.5251 41.1447 47.2321 42.0431 46.8501 42.7908C46.3981 43.6754 45.8215 44.4677 45.1364 45.1515C44.4528 45.834 43.6612 46.4083 42.778 46.8585C42.0264 47.2415 41.1224 47.5346 40.1651 47.7279C39.5381 47.8545 38.1584 47.9383 37.088 47.9763C36.6473 47.9921 36.0772 48 35.8154 48L12.1808 47.9962C11.918 47.9962 11.3481 47.9881 10.9078 47.9723C9.83054 47.9337 8.44047 47.8483 7.80708 47.7192C6.85527 47.5251 5.95686 47.2321 5.20914 46.8501C4.32455 46.3981 3.53226 45.8215 2.84843 45.1364C2.16596 44.4528 1.59167 43.6613 1.14155 42.7781C0.758406 42.0264 0.465262 41.1224 0.272004 40.1652C0.145447 39.5381 0.0616849 38.1585 0.0235771 37.088C0.00792154 36.6474 0 36.0773 0 35.8155L0.00374984 12.1808C0.00374984 11.918 0.0117651 11.3481 0.0275613 10.9078C0.0662316 9.83053 0.151587 8.44047 0.280723 7.80712C0.474824 6.85532 0.76778 5.9569 1.14984 5.20914C1.60184 4.3246 2.17842 3.53225 2.86347 2.84842C3.54707 2.166 4.33866 1.59167 5.22189 1.1415C5.97359 0.758452 6.87763 0.465308 7.83483 0.272051C8.46185 0.145447 9.84156 0.0616849 10.9119 0.023624C11.3526 0.00792153 11.9228 0 12.1845 0L35.8192 0.00379671C36.082 0.00379671 36.6519 0.011812 37.0922 0.0276082C38.1695 0.0662784 39.5595 0.151634 40.1929 0.280769C41.1447 0.47487 42.0431 0.767826 42.7909 1.14989C43.6754 1.60188 44.4677 2.17847 45.1515 2.86352C45.834 3.54711 46.4083 4.33866 46.8584 5.22193C47.2416 5.97363 47.5347 6.87763 47.728 7.83482C47.8545 8.46189 47.9382 9.84155 47.9764 10.912C47.9921 11.3527 48 11.9228 48 12.1846L47.9962 35.8192Z" fill="url(#paint0_linear_1435_946)"/>
<path d="M36.7167 11.3558C33.4671 8.10345 29.1454 6.3114 24.5408 6.30957C15.0536 6.30957 7.3322 14.0281 7.3284 23.5153C7.32719 26.548 8.11976 29.5082 9.62598 32.1176L7.18408 41.0342L16.3086 38.6414C18.8227 40.0122 21.6532 40.7346 24.534 40.7358H24.5411C34.0273 40.7358 41.7495 33.0164 41.7533 23.529C41.7551 18.9314 39.9665 14.6082 36.7167 11.3558ZM24.5411 37.8297H24.5352C21.9681 37.8288 19.4503 37.1393 17.2538 35.8363L16.7313 35.5264L11.3167 36.9463L12.762 31.6687L12.4217 31.1276C10.9897 28.8506 10.2333 26.2187 10.2344 23.5165C10.2375 15.6311 16.6553 9.2157 24.5466 9.2157C28.3677 9.21715 31.9598 10.7068 34.6608 13.41C37.3619 16.1132 38.8485 19.7065 38.8471 23.5279C38.844 31.414 32.4263 37.8297 24.5411 37.8297ZM32.3883 27.1186C31.9582 26.9034 29.8438 25.8632 29.4495 25.7197C29.0553 25.5762 28.7686 25.5045 28.4818 25.935C28.1952 26.3654 27.371 27.3338 27.12 27.6207C26.8692 27.9077 26.6183 27.9436 26.1882 27.7283C25.7581 27.5131 24.3724 27.0591 22.7297 25.5944C21.4512 24.4545 20.588 23.0464 20.3371 22.6159C20.0863 22.1855 20.3105 21.9529 20.5257 21.7385C20.7192 21.5459 20.9558 21.2363 21.1709 20.9853C21.3859 20.7343 21.4576 20.5548 21.6009 20.2679C21.7443 19.981 21.6726 19.7299 21.5651 19.5147C21.4576 19.2995 20.5974 17.1833 20.239 16.3224C19.89 15.4841 19.5353 15.5975 19.2713 15.5843C19.0207 15.5719 18.7337 15.5692 18.4471 15.5692C18.1604 15.5692 17.6944 15.6768 17.3002 16.1072C16.906 16.5377 15.795 17.5778 15.795 19.694C15.795 21.8102 17.336 23.8546 17.5511 24.1416C17.7661 24.4285 20.5837 28.7712 24.898 30.6336C25.9242 31.0765 26.7252 31.3411 27.3498 31.5392C28.3801 31.8664 29.3177 31.8202 30.0588 31.7096C30.8851 31.5862 32.6032 30.6695 32.9617 29.6652C33.3201 28.6609 33.3201 27.8001 33.2126 27.6207C33.1051 27.4414 32.8184 27.3338 32.3883 27.1186Z" fill="white"/>
<defs>
<linearGradient id="paint0_linear_1435_946" x1="24" y1="0" x2="24" y2="48" gradientUnits="userSpaceOnUse">
<stop stop-color="#61FD7D"/>
<stop offset="1" stop-color="#2BB826"/>
</linearGradient>
</defs>
</svg>
