<svg width="80" height="80" viewBox="0 0 80 80" fill="none" xmlns="http://www.w3.org/2000/svg">
<rect width="80" height="80" rx="26" fill="#1677FF"/>
<path fillRule="evenodd" clipRule="evenodd" d="M17.5 17.5V62.5H62.5V17.5H17.5ZM18.9052 61.3827V18.7942H61.3835V61.3827H18.9052Z" fill="white"/>
<path fillRule="evenodd" clipRule="evenodd" d="M35.6669 24.6705L35.6696 24.6692C36.0204 24.4932 36.3682 24.3187 36.7547 24.1255C35.0419 23.6477 27.6096 23.7606 26.8386 24.2797C26.9709 24.3163 27.0964 24.3529 27.2175 24.3882C27.4825 24.4655 27.7266 24.5366 27.9742 24.5882C29.4781 24.908 30.6098 25.7207 31.396 27.0375C32.2112 28.4056 33.0294 29.7715 33.8472 31.1369L33.8486 31.1391C35.1106 33.2459 36.3719 35.3515 37.6206 37.4626C37.7725 37.7222 37.8408 38.1774 37.7155 38.422C37.181 39.4638 36.607 40.4837 35.9968 41.568C35.8051 41.9085 35.6089 42.2571 35.4102 42.6131C35.3106 42.4256 35.2268 42.2702 35.1536 42.1345C35.0345 41.9135 34.9427 41.7431 34.8558 41.5709C34.4214 40.7159 33.9896 39.8595 33.5579 39.0032C32.5215 36.9473 31.4847 34.8908 30.4123 32.8539C30.145 32.3473 29.7676 31.8952 29.3906 31.4435C29.216 31.2344 29.0415 31.0253 28.878 30.811C28.2172 34.6447 27.7691 38.343 27.3399 42.0413C27.1258 43.881 26.9165 45.7215 26.7072 47.5621C26.4637 49.7037 26.2202 51.8458 25.9689 53.9863C25.8588 54.9044 25.4069 55.5514 24.4232 55.7772C24.2784 55.8107 24.1596 55.9461 23.9947 56.1341C23.9002 56.2417 23.7906 56.3667 23.6523 56.4995H30.2414C30.2699 56.4601 30.2994 56.4206 30.3288 56.3809C30.3582 56.3415 30.3877 56.3021 30.4162 56.2626C30.3292 56.1894 30.2461 56.1096 30.1631 56.03C29.9853 55.8591 29.8082 55.6892 29.5958 55.589C28.5021 55.0736 28.0995 54.3099 28.3805 52.9895H34.4494C34.2624 52.8395 34.0936 52.7076 33.9388 52.5865C33.5686 52.2968 33.279 52.0701 33.0138 51.8156C32.8657 51.6764 32.7138 51.3604 32.7784 51.2135C33.1431 50.3793 33.538 49.5588 33.9702 48.6606C34.0915 48.4085 34.2157 48.1504 34.3431 47.8841L34.4781 48.1264C34.6797 48.4883 34.8051 48.7136 34.9279 48.9412C35.3305 49.6861 35.7305 50.4322 36.1305 51.1784C36.9306 52.6708 37.7307 54.1633 38.551 55.6455C39.0371 56.5183 39.5612 56.4919 40.0284 55.6042C40.6702 54.3814 41.2892 53.151 41.8931 51.9095C42.3023 51.066 42.6976 50.2136 43.1142 49.3162C43.316 48.8816 43.5234 48.4344 43.7388 47.9744C43.8962 48.2277 44.0389 48.4695 44.1754 48.701C44.4601 49.1841 44.7182 49.6217 45.0262 50.0209C45.6985 50.8937 45.9758 51.7515 45.2579 52.7221C45.2399 52.7452 45.2516 52.7908 45.2634 52.8364C45.2689 52.8581 45.2744 52.8797 45.2768 52.8992C46.8781 52.9752 48.4758 53.0477 50.1445 53.1235L50.3393 53.1323C50.2928 53.8085 50.2508 54.4313 50.2064 55.09L50.1304 56.2175C51.4064 56.299 52.6525 56.3802 53.8753 56.4603C54.7412 56.5171 55.5973 56.5729 56.4423 56.6273C56.7234 55.8111 56.3893 55.6531 55.8309 55.5288C54.2435 55.1791 53.67 54.5544 53.4992 53.1023C53.2903 51.3364 53.0821 49.5704 52.8739 47.8042C52.257 42.5715 51.6401 37.3381 51.004 32.1089C50.9781 31.9118 50.8238 31.7321 50.6694 31.552C50.5967 31.4675 50.5242 31.3828 50.4648 31.2963C50.3777 31.3562 50.2786 31.4096 50.18 31.4628C49.9687 31.5768 49.7591 31.69 49.6711 31.8644C49.2295 32.7434 48.8126 33.6335 48.396 34.5233C48.0815 35.195 47.7668 35.8667 47.4416 36.5333C46.7563 37.9399 46.0552 39.3388 45.3356 40.7746C45.0545 41.3355 44.7702 41.9026 44.4831 42.4776C44.2274 42.0518 43.9751 41.6341 43.7261 41.2221L43.7247 41.2197C42.9427 39.9256 42.1939 38.6864 41.4829 37.4288C41.369 37.2256 41.5096 36.7779 41.6729 36.5333C42.4122 35.4174 43.1622 34.3081 43.9127 33.1987C45.1859 31.3161 46.4598 29.4326 47.6809 27.5153C48.7253 25.8712 49.9596 24.6146 51.9725 24.3061C52.0231 24.2985 52.0656 24.2506 52.1107 24.1994C52.133 24.1741 52.1563 24.1479 52.1812 24.1255C50.9128 23.6778 44.882 23.7493 44.0199 24.2308C44.1137 24.2697 44.2039 24.308 44.2919 24.3454C44.4428 24.4095 44.5877 24.4711 44.7338 24.5281C46.3593 25.1488 46.4581 25.4122 45.6224 26.9509L45.5848 27.0191C45.5366 27.1064 45.4877 27.1948 45.4363 27.2782C45.0031 27.9786 44.5702 28.6793 44.1372 29.3801C43.0029 31.2158 41.8677 33.0534 40.7272 34.8855C40.6635 34.9883 40.5778 35.0766 40.4529 35.2054C40.3767 35.2839 40.2858 35.3776 40.1765 35.4987L38.5635 32.6268C37.1777 30.1594 35.8157 27.7346 34.4418 25.2843C34.8906 25.06 35.2811 24.8641 35.6669 24.6705ZM40.6153 50.4978C40.3908 50.9555 40.1601 51.4257 39.922 51.9133C39.6567 51.3604 39.4202 50.8226 39.1918 50.3035C38.6977 49.1803 38.2415 48.1431 37.613 47.2218C36.3597 45.3784 36.3901 43.7831 37.8029 42.1164C38.0307 41.8482 38.2046 41.5362 38.3784 41.2244C38.4654 41.0685 38.5523 40.9126 38.646 40.7621C38.9916 40.2053 39.3372 40.1677 39.6866 40.7659C39.9529 41.2236 40.221 41.6802 40.4891 42.1366C41.1728 43.3007 41.8564 44.4645 42.5083 45.6455C42.6451 45.89 42.6261 46.3227 42.5007 46.5898C41.908 47.8629 41.2897 49.1232 40.6153 50.4978ZM29.9566 38.7117C29.9148 38.7192 29.8721 38.7258 29.8294 38.7324C29.7867 38.739 29.7439 38.7455 29.7022 38.7531L29.6099 39.7667C29.2381 43.8485 28.8665 47.9287 28.4983 52.0112C28.5495 52.0414 28.6008 52.0704 28.652 52.0996C28.7033 52.1288 28.7546 52.1578 28.8059 52.188C29.116 51.7667 29.4179 51.3387 29.7198 50.9108C30.3829 49.9708 31.0458 49.031 31.7948 48.1623C33.1999 46.5259 33.3139 44.9947 32.1252 43.1624C31.5051 42.2098 31.0451 41.1583 30.5853 40.1074C30.3804 39.6391 30.1755 39.1709 29.9566 38.7117ZM48.7524 38.4124C48.7713 38.4181 48.7901 38.4238 48.8088 38.4295C49.2304 42.5981 49.6557 46.7666 50.0848 50.9315C50.0356 50.9614 49.9901 50.9916 49.9445 51.0218C49.8251 50.868 49.702 50.7162 49.5787 50.5646C49.2976 50.2186 49.016 49.8719 48.7785 49.4979C47.8745 48.0685 46.9897 46.6273 46.1504 45.16C45.9681 44.844 45.8542 44.34 45.9832 44.0314C46.5761 42.605 47.2132 41.1993 47.8508 39.7927C48.0707 39.3074 48.2907 38.8219 48.5089 38.3355C48.5888 38.3629 48.6713 38.3879 48.7524 38.4124Z" fill="white"/>
</svg>
